<svg class="animated" id="freepik_stories-raining" xmlns="http://www.w3.org/2000/svg" viewBox="0 0 500 500" version="1.1" xmlns:xlink="http://www.w3.org/1999/xlink" xmlns:svgjs="http://svgjs.com/svgjs"><style>svg#freepik_stories-raining:not(.animated) .animable {opacity: 0;}svg#freepik_stories-raining.animated #freepik--Rain--inject-75 {animation: 1.5s Infinite  linear floating;animation-delay: -2s;}            @keyframes floating {                0% {                    opacity: 1;                    transform: translateY(0px);                }                50% {                    transform: translateY(-10px);                }                100% {                    opacity: 1;                    transform: translateY(0px);                }            }        </style><g id="freepik--background-complete--inject-75" class="animable" style="transform-origin: 245.025px 269.864px;"><path d="M476.11,399.17c0,.14-101.24.26-226.1.26s-226.12-.12-226.12-.26,101.22-.27,226.12-.27S476.11,399,476.11,399.17Z" style="fill: rgb(224, 224, 224); transform-origin: 250px 399.165px;" id="elrng5qarq89n" class="animable"></path><rect x="36.92" y="157.08" width="92.23" height="241.42" style="fill: rgb(235, 235, 235); transform-origin: 83.035px 277.79px;" id="elst0xtkfnchh" class="animable"></rect><rect x="83.03" y="157.08" width="46.12" height="241.42" style="fill: rgb(224, 224, 224); transform-origin: 106.09px 277.79px;" id="elbw830qov3yu" class="animable"></rect><rect x="47.45" y="128.38" width="32.57" height="28.7" style="fill: rgb(235, 235, 235); transform-origin: 63.735px 142.73px;" id="elzrhg8dpdzpo" class="animable"></rect><rect x="72.26" y="128.38" width="7.76" height="28.7" style="fill: rgb(224, 224, 224); transform-origin: 76.14px 142.73px;" id="elbxewvvn41k" class="animable"></rect><rect x="29.23" y="155.4" width="102.62" height="1.67" style="fill: rgb(224, 224, 224); transform-origin: 80.54px 156.235px;" id="elo05nd297pva" class="animable"></rect><rect x="55.12" y="169.59" width="7.81" height="16.46" style="fill: rgb(255, 255, 255); transform-origin: 59.025px 177.82px;" id="eloje7qur8k6a" class="animable"></rect><path d="M83,192.52c0,.17-10.32.31-23.05.31s-23.06-.14-23.06-.31,10.32-.32,23.06-.32S83,192.34,83,192.52Z" style="fill: rgb(224, 224, 224); transform-origin: 59.945px 192.515px;" id="el20l33x5flot" class="animable"></path><rect x="101.64" y="169.59" width="7.81" height="16.46" style="fill: rgb(245, 245, 245); transform-origin: 105.545px 177.82px;" id="els1isq7c3syc" class="animable"></rect><path d="M129.55,192.52c0,.17-10.32.31-23.05.31s-23.06-.14-23.06-.31,10.32-.32,23.06-.32S129.55,192.34,129.55,192.52Z" style="fill: rgb(235, 235, 235); transform-origin: 106.495px 192.515px;" id="elmi0mb2dbvyi" class="animable"></path><rect x="101.64" y="202.28" width="7.81" height="16.46" style="fill: rgb(245, 245, 245); transform-origin: 105.545px 210.51px;" id="el5nur1hk9tm" class="animable"></rect><path d="M129.55,225.2c0,.17-10.32.31-23.05.31s-23.06-.14-23.06-.31,10.32-.31,23.06-.31S129.55,225,129.55,225.2Z" style="fill: rgb(235, 235, 235); transform-origin: 106.495px 225.2px;" id="ela3mxatbp4g" class="animable"></path><rect x="101.64" y="235.95" width="7.81" height="16.46" style="fill: rgb(245, 245, 245); transform-origin: 105.545px 244.18px;" id="elyw4ju0xq59" class="animable"></rect><path d="M129.55,258.87c0,.17-10.32.31-23.05.31s-23.06-.14-23.06-.31,10.32-.31,23.06-.31S129.55,258.7,129.55,258.87Z" style="fill: rgb(235, 235, 235); transform-origin: 106.495px 258.87px;" id="elmyat1rlk4cb" class="animable"></path><rect x="101.64" y="269.62" width="7.81" height="16.46" style="fill: rgb(245, 245, 245); transform-origin: 105.545px 277.85px;" id="elnchwrys9wqf" class="animable"></rect><path d="M129.55,292.54c0,.17-10.32.31-23.05.31s-23.06-.14-23.06-.31,10.32-.31,23.06-.31S129.55,292.37,129.55,292.54Z" style="fill: rgb(235, 235, 235); transform-origin: 106.495px 292.54px;" id="el05lssoyfl2b9" class="animable"></path><rect x="101.64" y="302.32" width="7.81" height="16.46" style="fill: rgb(245, 245, 245); transform-origin: 105.545px 310.55px;" id="elgcfl3dyhlzd" class="animable"></rect><path d="M129.55,325.25c0,.17-10.32.31-23.05.31s-23.06-.14-23.06-.31,10.32-.32,23.06-.32S129.55,325.07,129.55,325.25Z" style="fill: rgb(235, 235, 235); transform-origin: 106.495px 325.245px;" id="elru597bltpt" class="animable"></path><rect x="101.64" y="335.16" width="7.81" height="16.46" style="fill: rgb(245, 245, 245); transform-origin: 105.545px 343.39px;" id="elxipf5g2n5h" class="animable"></rect><rect x="101.64" y="368.43" width="7.81" height="16.46" style="fill: rgb(245, 245, 245); transform-origin: 105.545px 376.66px;" id="elw1j5wo7oudk" class="animable"></rect><path d="M129.55,358.09c0,.17-10.32.31-23.05.31s-23.06-.14-23.06-.31,10.32-.32,23.06-.32S129.55,357.91,129.55,358.09Z" style="fill: rgb(235, 235, 235); transform-origin: 106.495px 358.085px;" id="elodgvjoidetm" class="animable"></path><rect x="55.12" y="202.78" width="7.81" height="16.46" style="fill: rgb(255, 255, 255); transform-origin: 59.025px 211.01px;" id="elul67qedcv2f" class="animable"></rect><path d="M83,225.7c0,.17-10.32.31-23.05.31s-23.06-.14-23.06-.31,10.32-.32,23.06-.32S83,225.53,83,225.7Z" style="fill: rgb(224, 224, 224); transform-origin: 59.945px 225.695px;" id="elj3zg8iyniv" class="animable"></path><rect x="55.12" y="235.96" width="7.81" height="16.46" style="fill: rgb(255, 255, 255); transform-origin: 59.025px 244.19px;" id="elcxw4er5z6fh" class="animable"></rect><path d="M83,258.88c0,.17-10.32.32-23.05.32s-23.06-.15-23.06-.32,10.32-.31,23.06-.31S83,258.71,83,258.88Z" style="fill: rgb(224, 224, 224); transform-origin: 59.945px 258.885px;" id="eldvy14n23zl" class="animable"></path><rect x="55.12" y="269.14" width="7.81" height="16.46" style="fill: rgb(255, 255, 255); transform-origin: 59.025px 277.37px;" id="el8neh6rjmvk" class="animable"></rect><path d="M83,292.06c0,.18-10.32.32-23.05.32s-23.06-.14-23.06-.32,10.32-.31,23.06-.31S83,291.89,83,292.06Z" style="fill: rgb(224, 224, 224); transform-origin: 59.945px 292.065px;" id="eliugnapltdg" class="animable"></path><rect x="55.12" y="302.32" width="7.81" height="16.46" style="fill: rgb(255, 255, 255); transform-origin: 59.025px 310.55px;" id="el9xwjk0v8t6s" class="animable"></rect><path d="M83,325.25c0,.17-10.32.31-23.05.31s-23.06-.14-23.06-.31,10.32-.32,23.06-.32S83,325.07,83,325.25Z" style="fill: rgb(224, 224, 224); transform-origin: 59.945px 325.245px;" id="eltnfl40gixec" class="animable"></path><rect x="55.12" y="335.51" width="7.81" height="16.46" style="fill: rgb(255, 255, 255); transform-origin: 59.025px 343.74px;" id="elrefv6ca6l1s" class="animable"></rect><path d="M83,358.43c0,.17-10.32.31-23.05.31s-23.06-.14-23.06-.31,10.32-.32,23.06-.32S83,358.26,83,358.43Z" style="fill: rgb(224, 224, 224); transform-origin: 59.945px 358.425px;" id="el777kit6klg4" class="animable"></path><rect x="55.12" y="368.69" width="7.81" height="16.46" style="fill: rgb(255, 255, 255); transform-origin: 59.025px 376.92px;" id="eluynxz1iud5" class="animable"></rect><g id="elj32kzsb04k"><rect x="294.93" y="99.42" width="94.5" height="299.5" style="fill: rgb(245, 245, 245); transform-origin: 342.18px 249.17px; transform: rotate(180deg);" class="animable"></rect></g><g id="el1fjfkqgk0g4"><rect x="294.93" y="99.42" width="47.25" height="298.67" style="fill: rgb(235, 235, 235); transform-origin: 318.555px 248.755px; transform: rotate(180deg);" class="animable"></rect></g><g id="elch0uabksd8f"><rect x="345.27" y="70.02" width="33.37" height="29.4" style="fill: rgb(245, 245, 245); transform-origin: 361.955px 84.72px; transform: rotate(180deg);" class="animable"></rect></g><g id="eliuyrfgeuibc"><rect x="345.27" y="70.02" width="7.95" height="29.4" style="fill: rgb(235, 235, 235); transform-origin: 349.245px 84.72px; transform: rotate(180deg);" class="animable"></rect></g><polyline points="397.3 99.42 397.3 97.7 292.16 97.7 292.16 99.42" style="fill: rgb(224, 224, 224); transform-origin: 344.73px 98.56px;" id="elp92mwixkqep" class="animable"></polyline><g id="elb1yg78o3lee"><rect x="362.77" y="112.24" width="8" height="16.87" style="fill: rgb(250, 250, 250); transform-origin: 366.77px 120.675px; transform: rotate(180deg);" class="animable"></rect></g><path d="M342.18,135.73c0,.18,10.58.32,23.62.32s23.63-.14,23.63-.32-10.58-.32-23.63-.32S342.18,135.55,342.18,135.73Z" style="fill: rgb(224, 224, 224); transform-origin: 365.805px 135.73px;" id="elflfb60880x" class="animable"></path><g id="elnb3z980jjwq"><rect x="315.11" y="112.24" width="8" height="16.87" style="fill: rgb(224, 224, 224); transform-origin: 319.11px 120.675px; transform: rotate(180deg);" class="animable"></rect></g><path d="M294.51,135.73c0,.18,10.58.32,23.63.32s23.63-.14,23.63-.32-10.58-.32-23.63-.32S294.51,135.55,294.51,135.73Z" style="fill: rgb(224, 224, 224); transform-origin: 318.14px 135.73px;" id="elm1xzzzsuut" class="animable"></path><g id="elr7s4yvlw35s"><rect x="315.11" y="145.73" width="8" height="16.87" style="fill: rgb(224, 224, 224); transform-origin: 319.11px 154.165px; transform: rotate(180deg);" class="animable"></rect></g><path d="M294.51,169.22c0,.18,10.58.32,23.63.32s23.63-.14,23.63-.32-10.58-.32-23.63-.32S294.51,169,294.51,169.22Z" style="fill: rgb(224, 224, 224); transform-origin: 318.14px 169.22px;" id="elmqu9biqgcbf" class="animable"></path><g id="eltwfp750jgtk"><rect x="315.11" y="180.23" width="8" height="16.87" style="fill: rgb(224, 224, 224); transform-origin: 319.11px 188.665px; transform: rotate(180deg);" class="animable"></rect></g><path d="M294.51,203.72c0,.17,10.58.32,23.63.32s23.63-.15,23.63-.32-10.58-.33-23.63-.33S294.51,203.54,294.51,203.72Z" style="fill: rgb(224, 224, 224); transform-origin: 318.14px 203.715px;" id="elcmko3k9gkcg" class="animable"></path><g id="elgsbyrjsksx"><rect x="315.11" y="214.73" width="8" height="16.87" style="fill: rgb(224, 224, 224); transform-origin: 319.11px 223.165px; transform: rotate(180deg);" class="animable"></rect></g><path d="M294.51,238.21c0,.18,10.58.32,23.63.32s23.63-.14,23.63-.32-10.58-.32-23.63-.32S294.51,238,294.51,238.21Z" style="fill: rgb(224, 224, 224); transform-origin: 318.14px 238.21px;" id="el337fee6xk0u" class="animable"></path><g id="eljfljek4zhvm"><rect x="315.11" y="248.24" width="8" height="16.87" style="fill: rgb(224, 224, 224); transform-origin: 319.11px 256.675px; transform: rotate(180deg);" class="animable"></rect></g><path d="M294.51,271.72c0,.18,10.58.33,23.63.33s23.63-.15,23.63-.33-10.58-.32-23.63-.32S294.51,271.55,294.51,271.72Z" style="fill: rgb(224, 224, 224); transform-origin: 318.14px 271.725px;" id="elun8raoq00vj" class="animable"></path><g id="elgfim2fsabbu"><rect x="315.11" y="281.88" width="8" height="16.87" style="fill: rgb(224, 224, 224); transform-origin: 319.11px 290.315px; transform: rotate(180deg);" class="animable"></rect></g><g id="eln78mp8v1e"><rect x="315.11" y="315.97" width="8" height="16.87" style="fill: rgb(224, 224, 224); transform-origin: 319.11px 324.405px; transform: rotate(180deg);" class="animable"></rect></g><path d="M294.51,305.37c0,.18,10.58.32,23.63.32s23.63-.14,23.63-.32-10.58-.32-23.63-.32S294.51,305.19,294.51,305.37Z" style="fill: rgb(224, 224, 224); transform-origin: 318.14px 305.37px;" id="elnk3ndy0x1cb" class="animable"></path><g id="elmc2nnsa7clj"><rect x="362.77" y="146.24" width="8" height="16.87" style="fill: rgb(250, 250, 250); transform-origin: 366.77px 154.675px; transform: rotate(180deg);" class="animable"></rect></g><path d="M342.18,169.73c0,.18,10.58.32,23.62.32s23.63-.14,23.63-.32-10.58-.32-23.63-.32S342.18,169.55,342.18,169.73Z" style="fill: rgb(224, 224, 224); transform-origin: 365.805px 169.73px;" id="elkdjmz61m9u" class="animable"></path><g id="eln9vy3iz91qf"><rect x="362.77" y="180.24" width="8" height="16.87" style="fill: rgb(250, 250, 250); transform-origin: 366.77px 188.675px; transform: rotate(180deg);" class="animable"></rect></g><path d="M342.18,203.73c0,.17,10.58.32,23.62.32s23.63-.15,23.63-.32-10.58-.33-23.63-.33S342.18,203.55,342.18,203.73Z" style="fill: rgb(224, 224, 224); transform-origin: 365.805px 203.725px;" id="elyw74zbgy8q" class="animable"></path><g id="eldhoebwm8tkn"><rect x="362.77" y="214.24" width="8" height="16.87" style="fill: rgb(250, 250, 250); transform-origin: 366.77px 222.675px; transform: rotate(180deg);" class="animable"></rect></g><path d="M342.18,237.73c0,.17,10.58.32,23.62.32s23.63-.15,23.63-.32-10.58-.33-23.63-.33S342.18,237.55,342.18,237.73Z" style="fill: rgb(224, 224, 224); transform-origin: 365.805px 237.725px;" id="elppi0n69jh7" class="animable"></path><g id="elw0pzz3ml3z"><rect x="362.77" y="248.24" width="8" height="16.87" style="fill: rgb(250, 250, 250); transform-origin: 366.77px 256.675px; transform: rotate(180deg);" class="animable"></rect></g><path d="M342.18,271.72c0,.18,10.58.33,23.62.33s23.63-.15,23.63-.33-10.58-.32-23.63-.32S342.18,271.55,342.18,271.72Z" style="fill: rgb(224, 224, 224); transform-origin: 365.805px 271.725px;" id="elbtj2er6nyv" class="animable"></path><g id="elkob0egm43k"><rect x="362.77" y="282.24" width="8" height="16.87" style="fill: rgb(250, 250, 250); transform-origin: 366.77px 290.675px; transform: rotate(180deg);" class="animable"></rect></g><path d="M342.18,305.72c0,.18,10.58.32,23.62.32s23.63-.14,23.63-.32-10.58-.32-23.63-.32S342.18,305.54,342.18,305.72Z" style="fill: rgb(224, 224, 224); transform-origin: 365.805px 305.72px;" id="el7g1esh9ml3j" class="animable"></path><g id="ell5cbiihytr"><rect x="362.77" y="316.23" width="8" height="16.87" style="fill: rgb(250, 250, 250); transform-origin: 366.77px 324.665px; transform: rotate(180deg);" class="animable"></rect></g><polygon points="356.87 398.92 466.08 398.92 466.56 226.31 357.35 226.31 356.87 398.92" style="fill: rgb(235, 235, 235); transform-origin: 411.715px 312.615px;" id="elbq76j2vpva7" class="animable"></polygon><g id="elvomq4dewb6n"><rect x="357.35" y="226.31" width="54.61" height="172.6" style="fill: rgb(224, 224, 224); transform-origin: 384.655px 312.61px; transform: rotate(180deg);" class="animable"></rect></g><g id="elbfe34biybyu"><rect x="415.52" y="192.33" width="38.57" height="33.98" style="fill: rgb(235, 235, 235); transform-origin: 434.805px 209.32px; transform: rotate(180deg);" class="animable"></rect></g><g id="elx6w72zgjq4"><rect x="415.52" y="192.33" width="9.19" height="33.98" style="fill: rgb(224, 224, 224); transform-origin: 420.115px 209.32px; transform: rotate(180deg);" class="animable"></rect></g><g id="elaxtf8phkhym"><rect x="354.15" y="224.33" width="121.51" height="1.98" style="fill: rgb(224, 224, 224); transform-origin: 414.905px 225.32px; transform: rotate(180deg);" class="animable"></rect></g><g id="elazxwy3nvmv8"><rect x="435.76" y="241.13" width="9.24" height="19.49" style="fill: rgb(255, 255, 255); transform-origin: 440.38px 250.875px; transform: rotate(180deg);" class="animable"></rect></g><path d="M412,268.28c0,.2,12.23.37,27.31.37s27.3-.17,27.3-.37-12.22-.38-27.3-.38S412,268.07,412,268.28Z" style="fill: rgb(224, 224, 224); transform-origin: 439.305px 268.275px;" id="elu7dtfcks8kp" class="animable"></path><g id="el1x5wtdheoai"><rect x="380.68" y="241.13" width="9.24" height="19.49" style="fill: rgb(245, 245, 245); transform-origin: 385.3px 250.875px; transform: rotate(180deg);" class="animable"></rect></g><path d="M356.87,268.28c0,.2,12.23.37,27.31.37s27.3-.17,27.3-.37-12.22-.38-27.3-.38S356.87,268.07,356.87,268.28Z" style="fill: rgb(235, 235, 235); transform-origin: 384.175px 268.275px;" id="elewj9t3seh0g" class="animable"></path><g id="el2mjlow0fhnr"><rect x="380.68" y="279.83" width="9.24" height="19.49" style="fill: rgb(245, 245, 245); transform-origin: 385.3px 289.575px; transform: rotate(180deg);" class="animable"></rect></g><path d="M356.87,307c0,.2,12.23.37,27.31.37s27.3-.17,27.3-.37-12.22-.38-27.3-.38S356.87,306.77,356.87,307Z" style="fill: rgb(235, 235, 235); transform-origin: 384.175px 306.995px;" id="elbr1y7zxmn5" class="animable"></path><g id="elm73bmmimmtm"><rect x="380.68" y="319.7" width="9.24" height="19.49" style="fill: rgb(245, 245, 245); transform-origin: 385.3px 329.445px; transform: rotate(180deg);" class="animable"></rect></g><path d="M356.87,346.84c0,.21,12.23.38,27.31.38s27.3-.17,27.3-.38-12.22-.37-27.3-.37S356.87,346.64,356.87,346.84Z" style="fill: rgb(235, 235, 235); transform-origin: 384.175px 346.845px;" id="ell09xxwbnn3j" class="animable"></path><g id="elhdhmzifipem"><rect x="380.68" y="359.57" width="9.24" height="19.49" style="fill: rgb(245, 245, 245); transform-origin: 385.3px 369.315px; transform: rotate(180deg);" class="animable"></rect></g><path d="M356.87,386.71c0,.21,12.23.37,27.31.37s27.3-.16,27.3-.37-12.22-.37-27.3-.37S356.87,386.51,356.87,386.71Z" style="fill: rgb(235, 235, 235); transform-origin: 384.175px 386.71px;" id="elscraauuwm5b" class="animable"></path><g id="elyswhnnwj6gg"><rect x="435.76" y="280.42" width="9.24" height="19.49" style="fill: rgb(255, 255, 255); transform-origin: 440.38px 290.165px; transform: rotate(180deg);" class="animable"></rect></g><path d="M412,307.57c0,.2,12.23.37,27.31.37s27.3-.17,27.3-.37-12.22-.38-27.3-.38S412,307.36,412,307.57Z" style="fill: rgb(224, 224, 224); transform-origin: 439.305px 307.565px;" id="elamw5ksmo4z4" class="animable"></path><g id="elllorlilcgs"><rect x="435.76" y="319.71" width="9.24" height="19.49" style="fill: rgb(255, 255, 255); transform-origin: 440.38px 329.455px; transform: rotate(180deg);" class="animable"></rect></g><path d="M412,346.86c0,.2,12.23.37,27.31.37s27.3-.17,27.3-.37-12.22-.37-27.3-.37S412,346.65,412,346.86Z" style="fill: rgb(224, 224, 224); transform-origin: 439.305px 346.86px;" id="elakbd1cyexu8" class="animable"></path><g id="elt9gkh3b0d5g"><rect x="435.76" y="359.01" width="9.24" height="19.49" style="fill: rgb(255, 255, 255); transform-origin: 440.38px 368.755px; transform: rotate(180deg);" class="animable"></rect></g><path d="M412,386.15c0,.2,12.23.37,27.31.37s27.3-.17,27.3-.37-12.22-.37-27.3-.37S412,385.94,412,386.15Z" style="fill: rgb(224, 224, 224); transform-origin: 439.305px 386.15px;" id="el3v0aw57w20s" class="animable"></path><path d="M354.78,438.07l-201.36.57c-3.75,0-5.27,5.52-3.07,8.55s6.22,4,9.91,4.64a193.48,193.48,0,0,0,46.91,2.34c4.13-.3,8.68-.62,12,1.86,2,1.48,3.19,3.75,4.76,5.66,4.38,5.36,11.56,7.79,18.49,8s13.74-1.52,20.47-3.17q19.88-4.84,39.94-8.84A255.11,255.11,0,0,1,333.89,453c5-.37,10.11-.53,14.53-2.8S356.28,442.81,354.78,438.07Z" style="fill: rgb(224, 224, 224); transform-origin: 252.234px 453.889px;" id="eltdokv6xpgo" class="animable"></path><path d="M9.32,437.59c29.75,17.56,69.86,19.05,98.68,0Z" style="fill: rgb(224, 224, 224); transform-origin: 58.66px 444.457px;" id="el1jgd7l428jf" class="animable"></path><path d="M382.05,438.68c29.76,17.56,69.86,19.05,98.68,0Z" style="fill: rgb(224, 224, 224); transform-origin: 431.39px 445.547px;" id="elm3sphtxutps" class="animable"></path></g><g id="freepik--Rain--inject-75" class="animable animator-active" style="transform-origin: 253.071px 228.325px;"><path d="M49.63,432.85A11.46,11.46,0,0,1,47,430.69a11.26,11.26,0,0,1-2.24-2.53,11.05,11.05,0,0,1,2.61,2.16A10.8,10.8,0,0,1,49.63,432.85Z" style="fill: rgb(38, 50, 56); transform-origin: 47.195px 430.505px;" id="elimwcaaymwz" class="animable"></path><path d="M55.46,432.24a13,13,0,0,1-1.07-4.33,12.61,12.61,0,0,1,0-4.46,37.41,37.41,0,0,1,.54,4.4A36.08,36.08,0,0,1,55.46,432.24Z" style="fill: rgb(38, 50, 56); transform-origin: 54.8256px 427.845px;" id="elw1ib4106ws" class="animable"></path><path d="M62.74,426.24a14.35,14.35,0,0,1-1.15,3.65A14.64,14.64,0,0,1,60,433.36a27.63,27.63,0,0,1,2.78-7.12Z" style="fill: rgb(38, 50, 56); transform-origin: 61.39px 429.8px;" id="eld9fapkdapop" class="animable"></path><path d="M123.21,431.86a10.49,10.49,0,0,1-2.43-2.16,10,10,0,0,1-2-2.52,10.49,10.49,0,0,1,2.43,2.16A10,10,0,0,1,123.21,431.86Z" style="fill: rgb(38, 50, 56); transform-origin: 120.995px 429.52px;" id="elq1vk4hlsesi" class="animable"></path><path d="M126.22,429.81a17.41,17.41,0,0,1,.34-6,17.41,17.41,0,0,1-.34,6Z" style="fill: rgb(38, 50, 56); transform-origin: 126.39px 426.81px;" id="eli6001t34ue" class="animable"></path><path d="M129.94,431.87c-.11-.11.48-.86,1-1.88s.88-1.9,1-1.87,0,1-.57,2.13S130,432,129.94,431.87Z" style="fill: rgb(38, 50, 56); transform-origin: 130.954px 430.003px;" id="elmg6l2p7zzjb" class="animable"></path><path d="M237.52,434.53a6.83,6.83,0,0,1-2.63-2.35,6.93,6.93,0,0,1-1.58-3.15c.15-.06.83,1.33,2,2.83S237.62,434.41,237.52,434.53Z" style="fill: rgb(38, 50, 56); transform-origin: 235.418px 431.779px;" id="elskq02v41z1i" class="animable"></path><path d="M240,435.18a28.41,28.41,0,0,1-.4-5.34,28.13,28.13,0,0,1,.13-5.34,53.94,53.94,0,0,1,.27,10.68Z" style="fill: rgb(38, 50, 56); transform-origin: 239.838px 429.84px;" id="elj6onrlffdh" class="animable"></path><path d="M244.31,435.82c-.13-.07.53-1.51,1.05-3.37a32.2,32.2,0,0,1,.9-3.42,7.7,7.7,0,0,1-.39,3.56A7.56,7.56,0,0,1,244.31,435.82Z" style="fill: rgb(38, 50, 56); transform-origin: 245.307px 432.425px;" id="eltpjehkipq" class="animable"></path><path d="M388,433.22a11.54,11.54,0,0,1-2.75-2.07,11.72,11.72,0,0,1-2.42-2.46,11.47,11.47,0,0,1,2.76,2.07A11.21,11.21,0,0,1,388,433.22Z" style="fill: rgb(38, 50, 56); transform-origin: 385.415px 430.955px;" id="elh718aaktzil" class="animable"></path><path d="M392.86,431a24.16,24.16,0,0,1-1.69-4.62,23,23,0,0,1-1.2-4.77,24.5,24.5,0,0,1,1.69,4.62A23.21,23.21,0,0,1,392.86,431Z" style="fill: rgb(38, 50, 56); transform-origin: 391.415px 426.305px;" id="elwhvopq7jc1l" class="animable"></path><path d="M399,431.29a15.64,15.64,0,0,1,.71-3.94,15.41,15.41,0,0,1,1.23-3.82,16,16,0,0,1-.72,3.94A15.66,15.66,0,0,1,399,431.29Z" style="fill: rgb(38, 50, 56); transform-origin: 399.97px 427.41px;" id="el2uckgn7qfnw" class="animable"></path><path d="M358.07,102.7c-.12.09-10.2-13.55-22.53-30.46s-22.23-30.68-22.11-30.77S323.63,55,336,71.93,358.19,102.62,358.07,102.7Z" style="fill: rgb(38, 50, 56); transform-origin: 335.75px 72.085px;" id="elswxf7bvj74q" class="animable"></path><path d="M348.32,144.92a6.73,6.73,0,0,1-.87-1L345.24,141c-1.86-2.47-4.39-5.89-7.16-9.68s-5.25-7.26-7-9.78l-2.08-3a6.71,6.71,0,0,1-.7-1.14,7,7,0,0,1,.87,1l2.21,2.9c1.86,2.46,4.39,5.88,7.16,9.68s5.25,7.25,7,9.77c.84,1.2,1.54,2.2,2.09,3A5.89,5.89,0,0,1,348.32,144.92Z" style="fill: rgb(38, 50, 56); transform-origin: 338.31px 131.16px;" id="elcqps0qyrzos" class="animable"></path><path d="M292.41,49a21.84,21.84,0,0,1-2.15-2.63l-2.21-2.94-1.29-1.75c-.23-.3-.45-.61-.68-.92l0,0h0c-.37.28.51-.36.42-.3h0l0,.06.09.12.17.24.35.48.35.48.18.24.08.12.05.06h0l-.42.31h0l0,0-.67-.93-1.27-1.76-2.12-3A21.7,21.7,0,0,1,281.46,34a21,21,0,0,1,2.15,2.63l2.21,2.93c.41.57.84,1.15,1.29,1.75l.68.93,0,0h0l-.42.3h0v0l-.05-.06-.08-.12-.18-.23-.35-.49-.35-.48-.17-.24-.09-.11,0-.06v0h0c-.1.06.79-.58.41-.31h0l0,0,.68.93,1.27,1.77c.77,1.1,1.48,2.11,2.12,3A24.23,24.23,0,0,1,292.41,49Z" style="fill: rgb(38, 50, 56); transform-origin: 286.935px 41.5px;" id="eltlo2dedgbze" class="animable"></path><path d="M398.89,238.36c-.11.08-10.2-13.56-22.53-30.46s-22.23-30.69-22.11-30.77,10.2,13.55,22.53,30.46S399,238.27,398.89,238.36Z" style="fill: rgb(38, 50, 56); transform-origin: 376.57px 207.745px;" id="elxx9c8sjc3o" class="animable"></path><path d="M310.25,189.55a8.83,8.83,0,0,1-.87-1l-2.21-2.9c-1.85-2.47-4.38-5.89-7.15-9.68s-5.26-7.26-7-9.78l-2.08-3a6.46,6.46,0,0,1-.71-1.14,6.27,6.27,0,0,1,.87,1l2.21,2.9c1.86,2.46,4.39,5.88,7.16,9.68s5.25,7.25,7,9.77l2.08,3A6.27,6.27,0,0,1,310.25,189.55Z" style="fill: rgb(38, 50, 56); transform-origin: 300.24px 175.8px;" id="elg0zg24js1ci" class="animable"></path><path d="M345.73,299.06a2.38,2.38,0,0,1-.37-.42l-1-1.25-3.56-4.67c-3-3.94-7.25-9.31-12-15.16s-9-11.28-11.92-15.28c-1.47-2-2.65-3.63-3.44-4.77l-.9-1.31c-.21-.31-.31-.47-.29-.48a2.38,2.38,0,0,1,.37.42l1,1.25,3.56,4.67c3,3.94,7.25,9.31,12,15.17s9,11.27,11.92,15.27c1.47,2,2.64,3.63,3.44,4.77l.9,1.31A3.25,3.25,0,0,1,345.73,299.06Z" style="fill: rgb(38, 50, 56); transform-origin: 328.989px 277.39px;" id="elu8l4abe6f2" class="animable"></path><path d="M380.47,420.84a3,3,0,0,1-.37-.42l-1-1.26-3.57-4.66c-3-3.94-7.24-9.31-12-15.17s-9-11.28-11.92-15.28c-1.47-2-2.64-3.62-3.44-4.76l-.9-1.32a2.73,2.73,0,0,1-.29-.48,2.37,2.37,0,0,1,.37.42l1,1.26,3.56,4.66c3,3.94,7.25,9.31,12,15.17s9,11.28,11.91,15.28c1.47,2,2.65,3.62,3.44,4.76l.91,1.32A1.8,1.8,0,0,1,380.47,420.84Z" style="fill: rgb(38, 50, 56); transform-origin: 363.725px 399.165px;" id="elcs6hut30xvf" class="animable"></path><path d="M469.61,370a2.5,2.5,0,0,1-.37-.41l-1-1.26-3.56-4.66c-3-3.94-7.25-9.32-12-15.17s-9-11.28-11.92-15.28c-1.47-2-2.65-3.62-3.44-4.76-.36-.54-.66-1-.9-1.32a1.71,1.71,0,0,1-.29-.48,3,3,0,0,1,.37.42l1,1.26L441,333c3,3.94,7.25,9.31,12,15.17s9,11.28,11.92,15.28c1.47,2,2.65,3.62,3.44,4.76l.9,1.31A2.39,2.39,0,0,1,469.61,370Z" style="fill: rgb(38, 50, 56); transform-origin: 452.87px 348.33px;" id="elsvlo9la3wah" class="animable"></path><path d="M479.69,268.23a6.16,6.16,0,0,1-.85-1l-2.16-2.8-3.18-4.15c-1.22-1.55-2.52-3.28-4.08-4.92a59.94,59.94,0,0,1-4.08-5c-1.19-1.58-2.23-3-3.1-4.23s-1.56-2.21-2-2.9a6.41,6.41,0,0,1-.69-1.1,6.31,6.31,0,0,1,.85,1c.57.75,1.3,1.69,2.16,2.8l3.18,4.16c1.22,1.55,2.53,3.28,4.08,4.92a61.57,61.57,0,0,1,4.08,5c1.19,1.58,2.23,3,3.1,4.24s1.56,2.2,2,2.89A7,7,0,0,1,479.69,268.23Z" style="fill: rgb(38, 50, 56); transform-origin: 469.62px 255.18px;" id="elgkaq7am4mab" class="animable"></path><path d="M64.48,406.32a2.23,2.23,0,0,1-.41-.48L63,404.42c-.94-1.24-2.28-3.06-3.92-5.32-3.28-4.51-7.7-10.83-12.49-17.86s-9.17-13.38-12.37-17.94l-3.78-5.41c-.42-.61-.76-1.1-1-1.49a2.22,2.22,0,0,1-.32-.53,3.43,3.43,0,0,1,.41.47l1.09,1.43c.94,1.24,2.28,3.06,3.92,5.31,3.28,4.52,7.7,10.83,12.5,17.87s9.16,13.37,12.36,17.94c1.57,2.24,2.85,4.08,3.79,5.41l1,1.48A3.14,3.14,0,0,1,64.48,406.32Z" style="fill: rgb(38, 50, 56); transform-origin: 46.8px 381.095px;" id="elqapv1q5l00h" class="animable"></path><path d="M243,403.24a6.16,6.16,0,0,1-.85-1l-2.16-2.8-3.18-4.16c-1.22-1.55-2.52-3.27-4.08-4.92a58.28,58.28,0,0,1-4.08-5c-1.19-1.58-2.23-3-3.1-4.23s-1.56-2.21-2-2.9a6.41,6.41,0,0,1-.69-1.1,6.31,6.31,0,0,1,.85,1c.57.75,1.3,1.68,2.16,2.8L229,385.1c1.22,1.55,2.53,3.28,4.08,4.92a61.57,61.57,0,0,1,4.08,5c1.19,1.58,2.23,3,3.1,4.23s1.56,2.21,2,2.9A6.46,6.46,0,0,1,243,403.24Z" style="fill: rgb(38, 50, 56); transform-origin: 232.93px 390.185px;" id="elk5p912calsn" class="animable"></path><path d="M57.25,325.28a6.31,6.31,0,0,1-.85-1c-.57-.75-1.3-1.69-2.16-2.8l-3.18-4.16c-1.22-1.55-2.53-3.28-4.08-4.92a61.57,61.57,0,0,1-4.08-5c-1.19-1.58-2.23-3-3.1-4.24s-1.56-2.2-2-2.89a6.1,6.1,0,0,1-.68-1.11,6.16,6.16,0,0,1,.85,1L40.09,303l3.19,4.16c1.22,1.55,2.52,3.28,4.08,4.92a59.94,59.94,0,0,1,4.08,5c1.18,1.58,2.23,3,3.1,4.23s1.55,2.21,2,2.9A6.41,6.41,0,0,1,57.25,325.28Z" style="fill: rgb(38, 50, 56); transform-origin: 47.185px 312.22px;" id="elndgiaqkblqp" class="animable"></path><path d="M386.6,361.34a6.91,6.91,0,0,1-.87-1l-2.22-2.9c-1.85-2.46-4.38-5.89-7.15-9.68s-5.25-7.26-7-9.77l-2.08-3a7.36,7.36,0,0,1-.71-1.14,6.27,6.27,0,0,1,.87,1l2.22,2.9c1.85,2.46,4.38,5.88,7.15,9.68s5.25,7.25,7,9.77l2.08,3A6.83,6.83,0,0,1,386.6,361.34Z" style="fill: rgb(38, 50, 56); transform-origin: 376.585px 347.595px;" id="elwbyx61if1gm" class="animable"></path><path d="M343.77,244.8a21.84,21.84,0,0,1-2.15-2.63l-2.21-2.94c-.42-.56-.85-1.14-1.29-1.75-.23-.3-.45-.61-.68-.92l0,0h0l.43-.31h0l0,.06.09.12.17.24.35.48.36.48.17.24.08.12.05.06h0l-.41.3h0l0,0-.67-.93-1.27-1.76-2.12-3a21.7,21.7,0,0,1-1.85-2.84,20,20,0,0,1,2.15,2.63l2.21,2.94,1.29,1.74.68.93,0,0h0c.09-.07-.79.58-.42.3h0v0l0-.06-.09-.11-.18-.24-.35-.48-.35-.49-.17-.23-.09-.12,0-.06v0h0c-.09.07.79-.58.41-.31h0l0,0,.67.93L339.8,239c.77,1.1,1.49,2.11,2.12,3A22.69,22.69,0,0,1,343.77,244.8Z" style="fill: rgb(38, 50, 56); transform-origin: 338.295px 237.31px;" id="elf4amn5smjy" class="animable"></path><path d="M128.7,152.06c-.12.08-10.2-13.56-22.53-30.46S83.94,90.91,84.06,90.83s10.2,13.55,22.53,30.46S128.82,152,128.7,152.06Z" style="fill: rgb(38, 50, 56); transform-origin: 106.38px 121.445px;" id="el8tljdp8hh2q" class="animable"></path><path d="M119,194.27a6.27,6.27,0,0,1-.87-1l-2.21-2.9c-1.86-2.46-4.39-5.88-7.16-9.68s-5.25-7.25-7-9.77l-2.08-3a5.89,5.89,0,0,1-.7-1.14,7.75,7.75,0,0,1,.87,1l2.21,2.9c1.85,2.47,4.39,5.89,7.15,9.69s5.26,7.25,7,9.77l2.09,3A6.71,6.71,0,0,1,119,194.27Z" style="fill: rgb(38, 50, 56); transform-origin: 108.99px 180.525px;" id="eli9g9zdoxp9" class="animable"></path><path d="M80.54,219.13a2.5,2.5,0,0,1-.37-.41l-1-1.26-3.56-4.66c-3-3.94-7.25-9.31-12-15.17s-9-11.28-11.92-15.28c-1.47-2-2.65-3.62-3.44-4.76l-.9-1.32a2.11,2.11,0,0,1-.29-.48,3,3,0,0,1,.37.42l1,1.26L52,182.13c3,3.94,7.25,9.31,12,15.17s9,11.28,11.92,15.28c1.47,2,2.65,3.62,3.44,4.76l.9,1.31C80.46,219,80.56,219.12,80.54,219.13Z" style="fill: rgb(38, 50, 56); transform-origin: 63.8013px 197.46px;" id="elbsjmcrecs6t" class="animable"></path><path d="M70.79,261.35a6.27,6.27,0,0,1-.87-1l-2.21-2.9c-1.86-2.46-4.39-5.88-7.16-9.68s-5.25-7.26-7-9.77l-2.08-3a6.27,6.27,0,0,1-.7-1.14,7,7,0,0,1,.87,1l2.21,2.9c1.86,2.46,4.39,5.88,7.16,9.68s5.25,7.26,7,9.77l2.09,3A6.27,6.27,0,0,1,70.79,261.35Z" style="fill: rgb(38, 50, 56); transform-origin: 60.78px 247.605px;" id="el6axv4hmvc0b" class="animable"></path><path d="M70.85,135.3a22.5,22.5,0,0,1-2.14-2.63l-2.21-2.94L65.2,128l-.68-.92,0,0h0l.42-.31h0l0,.06.08.12.18.24.35.48.35.48.17.24.09.12,0,.06h0l-.42.31h0l0,0-.68-.93-1.26-1.76-2.13-3a22.15,22.15,0,0,1-1.84-2.84,20.5,20.5,0,0,1,2.14,2.63l2.21,2.93,1.3,1.75.68.93,0,0h0l-.42.3h0l0,0,0-.06-.09-.12-.17-.23-.35-.48-.35-.49-.17-.23-.09-.12,0-.06v0h0l.42-.31h0l0,0c.23.32.45.63.68.93l1.26,1.77,2.12,3A21.32,21.32,0,0,1,70.85,135.3Z" style="fill: rgb(38, 50, 56); transform-origin: 65.34px 127.825px;" id="el8l1z07fisci" class="animable"></path><path d="M179.48,286.65c-.12.08-10.21-13.55-22.53-30.46s-22.23-30.68-22.11-30.77S145,239,157.37,255.88,179.59,286.57,179.48,286.65Z" style="fill: rgb(38, 50, 56); transform-origin: 157.16px 256.035px;" id="el5ujazo2v1fv" class="animable"></path><path d="M169.73,328.86a5.74,5.74,0,0,1-.87-1c-.59-.76-1.33-1.73-2.22-2.9-1.85-2.46-4.38-5.88-7.15-9.68s-5.25-7.25-7-9.77l-2.08-3a7.36,7.36,0,0,1-.71-1.14,5.74,5.74,0,0,1,.87,1c.59.76,1.33,1.74,2.22,2.9,1.85,2.46,4.38,5.88,7.15,9.68s5.25,7.25,7,9.77l2.08,3A7.36,7.36,0,0,1,169.73,328.86Z" style="fill: rgb(38, 50, 56); transform-origin: 159.715px 315.115px;" id="elbuhonxolqsr" class="animable"></path><path d="M131.32,353.73a2.15,2.15,0,0,1-.38-.42l-1-1.26c-.89-1.16-2.09-2.74-3.57-4.66-3-3.94-7.24-9.31-12-15.17s-9-11.28-11.92-15.28c-1.47-2-2.64-3.62-3.43-4.76l-.91-1.32a1.8,1.8,0,0,1-.28-.48,3,3,0,0,1,.37.42l1,1.26,3.57,4.66c3,3.94,7.24,9.31,12,15.17s9,11.28,11.92,15.28c1.47,2,2.64,3.62,3.43,4.76l.91,1.32A2.73,2.73,0,0,1,131.32,353.73Z" style="fill: rgb(38, 50, 56); transform-origin: 114.575px 332.055px;" id="eltqa4lhvrcoi" class="animable"></path><path d="M121.57,395.94a6.27,6.27,0,0,1-.87-1l-2.22-2.9c-1.85-2.46-4.38-5.88-7.15-9.68s-5.25-7.25-7-9.77l-2.08-3a6.83,6.83,0,0,1-.71-1.14,6.91,6.91,0,0,1,.87,1l2.22,2.9c1.85,2.46,4.38,5.89,7.15,9.68s5.25,7.26,7,9.77l2.08,3A6.83,6.83,0,0,1,121.57,395.94Z" style="fill: rgb(38, 50, 56); transform-origin: 111.555px 382.195px;" id="eleqiyo8hokbp" class="animable"></path><path d="M121.63,269.89a21.84,21.84,0,0,1-2.15-2.63l-2.21-2.94L116,262.58l-.68-.93,0,0h0l.42-.3h0l0,.06.09.12.17.24.36.48.35.48.17.24.09.12,0,.06h0c.38-.27-.51.37-.41.31h0l0,0-.67-.93-1.27-1.76-2.12-3a21.7,21.7,0,0,1-1.85-2.84,20.85,20.85,0,0,1,2.15,2.63l2.21,2.94,1.29,1.74.68.93,0,0h0c.09-.07-.79.58-.42.3h0v0l0-.06-.09-.11-.17-.24-.36-.48-.35-.48-.17-.24-.09-.12,0-.06v0h0c-.09.07.79-.58.41-.31h0l0,0,.67.93,1.27,1.77c.77,1.1,1.49,2.11,2.12,3A21.32,21.32,0,0,1,121.63,269.89Z" style="fill: rgb(38, 50, 56); transform-origin: 116.14px 262.41px;" id="elnt94ab2ijk" class="animable"></path><path d="M248.59,96c-.12.08-10.21-13.55-22.53-30.46S203.83,34.87,204,34.78s10.2,13.55,22.53,30.46S248.7,95.93,248.59,96Z" style="fill: rgb(38, 50, 56); transform-origin: 226.294px 65.39px;" id="elrjordoofmrn" class="animable"></path><path d="M238.84,138.22a5.74,5.74,0,0,1-.87-1c-.59-.76-1.33-1.73-2.22-2.9-1.85-2.46-4.38-5.88-7.15-9.68s-5.25-7.25-7-9.77l-2.08-3a8.54,8.54,0,0,1-.71-1.14,6.27,6.27,0,0,1,.87,1c.59.76,1.33,1.74,2.22,2.9,1.85,2.46,4.38,5.88,7.15,9.68s5.26,7.25,7,9.77l2.08,3A6.46,6.46,0,0,1,238.84,138.22Z" style="fill: rgb(38, 50, 56); transform-origin: 228.825px 124.475px;" id="eljo85t77rbqf" class="animable"></path><path d="M200.43,163.09a2.37,2.37,0,0,1-.37-.42l-1-1.26-3.56-4.66c-3-3.94-7.25-9.31-12-15.17s-9-11.28-11.92-15.28c-1.47-2-2.65-3.62-3.44-4.76l-.9-1.32a1.71,1.71,0,0,1-.29-.48,3,3,0,0,1,.37.42l1,1.26,3.57,4.66c3,3.94,7.24,9.31,12,15.17s9,11.28,11.92,15.28c1.47,2,2.64,3.62,3.44,4.76l.9,1.32A2.73,2.73,0,0,1,200.43,163.09Z" style="fill: rgb(38, 50, 56); transform-origin: 183.69px 141.415px;" id="el3jr404w79we" class="animable"></path><path d="M190.68,205.3a6.27,6.27,0,0,1-.87-1l-2.22-2.9c-1.85-2.46-4.38-5.88-7.15-9.68s-5.25-7.25-7-9.77l-2.08-3a6.27,6.27,0,0,1-.7-1.14,8.83,8.83,0,0,1,.87,1l2.21,2.9c1.85,2.46,4.38,5.89,7.15,9.68s5.26,7.26,7,9.77c.84,1.2,1.53,2.21,2.08,3A6.46,6.46,0,0,1,190.68,205.3Z" style="fill: rgb(38, 50, 56); transform-origin: 180.67px 191.555px;" id="elguitjtjsnzk" class="animable"></path><path d="M190.74,79.25a22.5,22.5,0,0,1-2.14-2.63l-2.22-2.94-1.29-1.74-.68-.93,0,0h0l.42-.3h0l.05.06.08.12.18.24.35.48.35.48.17.24.09.12,0,.06h0c.38-.27-.5.37-.41.31h0l0,0-.68-.94c-.43-.6-.86-1.19-1.26-1.76l-2.13-3a22.15,22.15,0,0,1-1.84-2.84,22.66,22.66,0,0,1,2.14,2.63l2.21,2.94,1.29,1.74.69.93,0,0h0l-.42.3h0v0l0-.06-.09-.11-.17-.24-.35-.48-.35-.48-.18-.24-.08-.12,0-.06v0h0l.42-.31h0l0,0,.67.93,1.27,1.77,2.12,3A21.32,21.32,0,0,1,190.74,79.25Z" style="fill: rgb(38, 50, 56); transform-origin: 185.26px 71.765px;" id="elx01lwh26qh8" class="animable"></path><path d="M299.36,230.6c-.11.09-10.2-13.55-22.53-30.46s-22.22-30.68-22.11-30.77,10.21,13.55,22.54,30.47S299.48,230.52,299.36,230.6Z" style="fill: rgb(38, 50, 56); transform-origin: 277.04px 199.985px;" id="el6n0nbh1mifh" class="animable"></path><path d="M289.62,272.82a6.91,6.91,0,0,1-.87-1l-2.22-2.9c-1.85-2.46-4.38-5.89-7.15-9.68s-5.26-7.26-7-9.77c-.84-1.2-1.53-2.21-2.08-3a6.46,6.46,0,0,1-.71-1.14,6.27,6.27,0,0,1,.87,1l2.22,2.9c1.85,2.46,4.38,5.88,7.15,9.68s5.25,7.25,7,9.77l2.08,3A7.83,7.83,0,0,1,289.62,272.82Z" style="fill: rgb(38, 50, 56); transform-origin: 279.605px 259.075px;" id="elx4q0o7qyuwm" class="animable"></path><path d="M251.2,297.68a2.38,2.38,0,0,1-.37-.42l-1-1.26c-.89-1.16-2.1-2.73-3.57-4.66-3-3.94-7.24-9.31-12-15.17s-9-11.28-11.92-15.28c-1.47-2-2.64-3.62-3.43-4.76l-.91-1.31a3.25,3.25,0,0,1-.29-.48s.15.13.38.41l1,1.26c.89,1.16,2.09,2.74,3.57,4.66,3,3.94,7.24,9.32,12,15.17s9,11.28,11.92,15.28c1.47,2,2.64,3.62,3.43,4.76l.91,1.32A1.8,1.8,0,0,1,251.2,297.68Z" style="fill: rgb(38, 50, 56); transform-origin: 234.455px 276.01px;" id="elyfvrt4tco6j" class="animable"></path><path d="M241.46,339.89a6.27,6.27,0,0,1-.87-1c-.59-.76-1.33-1.74-2.22-2.9-1.85-2.46-4.38-5.88-7.15-9.68s-5.25-7.25-7-9.77l-2.08-3a5.9,5.9,0,0,1-.71-1.15,6.73,6.73,0,0,1,.87,1l2.22,2.89c1.85,2.47,4.38,5.89,7.15,9.69s5.25,7.25,7,9.77l2.08,3A7.36,7.36,0,0,1,241.46,339.89Z" style="fill: rgb(38, 50, 56); transform-origin: 231.445px 326.14px;" id="el071rxeb8f23w" class="animable"></path><path d="M241.52,213.84a20,20,0,0,1-2.15-2.63l-2.21-2.94-1.29-1.74-.68-.93,0,0h0c-.37.27.52-.37.43-.3h0v0l0,.06.09.11.17.24.35.48.35.48.18.24.08.12,0,.06v0h0c.38-.27-.51.37-.42.31h0l0,0-.67-.93-1.27-1.77-2.12-3a21.32,21.32,0,0,1-1.85-2.85,23.09,23.09,0,0,1,2.15,2.63l2.21,2.94,1.29,1.75.68.92,0,0h0c.09-.07-.79.58-.42.3h0l-.05-.06-.08-.12-.18-.24-.35-.48-.35-.48-.17-.24-.09-.12,0-.06h0c-.1.07.79-.58.41-.31h0l0,0,.67.93,1.27,1.76,2.12,3A24.74,24.74,0,0,1,241.52,213.84Z" style="fill: rgb(38, 50, 56); transform-origin: 236.015px 206.345px;" id="el3gwcybr8zem" class="animable"></path><path d="M420.34,180.22a8.36,8.36,0,0,1-1.07-1.07c-.67-.71-1.6-1.76-2.73-3.08-2.26-2.65-5.26-6.41-8.33-10.74s-5.61-8.42-7.35-11.43c-.88-1.51-1.56-2.74-2-3.6a8.37,8.37,0,0,1-.66-1.36,7.79,7.79,0,0,1,.83,1.26l2.14,3.51c1.82,3,4.41,7,7.46,11.32s6,8.1,8.19,10.8l2.6,3.19A10.56,10.56,0,0,1,420.34,180.22Z" style="fill: rgb(38, 50, 56); transform-origin: 409.27px 164.58px;" id="elymfyqz3oo1q" class="animable"></path><path d="M416.64,368.76c-.11.09-4.54-5.21-9.89-11.85s-9.59-12.08-9.47-12.18,4.53,5.22,9.88,11.86S416.75,368.67,416.64,368.76Z" style="fill: rgb(38, 50, 56); transform-origin: 406.96px 356.745px;" id="el7yt2loctjo" class="animable"></path><path d="M157.48,359.58c.11-.08,10.2,13.56,22.52,30.46s22.23,30.69,22.12,30.77-10.21-13.55-22.54-30.46S157.36,359.67,157.48,359.58Z" style="fill: rgb(224, 224, 224); transform-origin: 179.8px 390.195px;" id="elwo2fpzkvyjd" class="animable"></path><path d="M188,275.37a6.27,6.27,0,0,1,.87,1l2.21,2.9c1.86,2.46,4.39,5.88,7.16,9.68s5.25,7.26,7,9.77l2.08,3a6.27,6.27,0,0,1,.7,1.14,7,7,0,0,1-.87-1l-2.21-2.9c-1.85-2.46-4.39-5.88-7.15-9.68s-5.26-7.26-7-9.77l-2.09-3A6.27,6.27,0,0,1,188,275.37Z" style="fill: rgb(224, 224, 224); transform-origin: 198.01px 289.115px;" id="elb63zi1objw" class="animable"></path><path d="M397.89,305s.14.13.37.42l1,1.26c.89,1.15,2.09,2.73,3.56,4.66,3,3.94,7.25,9.31,12,15.17s9,11.28,11.93,15.27c1.47,2,2.64,3.63,3.43,4.77l.91,1.31a2,2,0,0,1,.28.48,2.5,2.5,0,0,1-.37-.41l-1-1.26L426.47,342c-3-3.94-7.24-9.32-12-15.18s-9-11.27-11.92-15.27c-1.47-2-2.64-3.63-3.43-4.76l-.91-1.32A2.73,2.73,0,0,1,397.89,305Z" style="fill: rgb(224, 224, 224); transform-origin: 414.63px 326.67px;" id="elh7vk9ilnc45" class="animable"></path><path d="M261.22,382.69a21.84,21.84,0,0,1,2.15,2.63l2.21,2.94c.41.56.85,1.14,1.29,1.75l.68.92,0,0h0c.38-.27-.51.37-.42.31h0l0-.06-.09-.12-.17-.24-.36-.48-.35-.48-.17-.24-.09-.12,0-.06h0l.41-.3h0l0,0,.67.93,1.27,1.76,2.12,3a21.7,21.7,0,0,1,1.85,2.84,20,20,0,0,1-2.15-2.63l-2.21-2.94-1.29-1.74-.68-.93,0,0h0c-.09.07.79-.58.42-.3h0v0l0,.06.09.11.17.24.36.48.35.48.17.24.09.12,0,.06v0h0c.09-.07-.79.58-.41.31h0l0,0-.67-.93-1.27-1.77c-.77-1.1-1.49-2.11-2.12-3A21.32,21.32,0,0,1,261.22,382.69Z" style="fill: rgb(224, 224, 224); transform-origin: 266.72px 390.18px;" id="eloc0pmdu99s" class="animable"></path><path d="M127.42,183c.12-.08,10.21,13.56,22.53,30.46s22.23,30.69,22.11,30.77-10.2-13.55-22.53-30.46S127.31,183.08,127.42,183Z" style="fill: rgb(224, 224, 224); transform-origin: 149.74px 213.615px;" id="elcfomi5i2g4i" class="animable"></path><path d="M137.17,140.78a6.27,6.27,0,0,1,.87,1l2.22,2.9c1.85,2.46,4.38,5.88,7.15,9.68s5.25,7.25,7,9.77l2.08,3a6.83,6.83,0,0,1,.71,1.14,6.91,6.91,0,0,1-.87-1l-2.22-2.9c-1.85-2.46-4.38-5.89-7.15-9.68s-5.25-7.26-7-9.77l-2.08-3A6.83,6.83,0,0,1,137.17,140.78Z" style="fill: rgb(224, 224, 224); transform-origin: 147.185px 154.525px;" id="elgo9lj2okcvd" class="animable"></path><path d="M63.79,305a2.38,2.38,0,0,1,.37.42l1,1.26,3.56,4.66c3,3.94,7.25,9.31,12,15.17s9,11.28,11.92,15.27c1.47,2,2.65,3.63,3.44,4.77l.9,1.31c.21.31.31.47.29.48a2.5,2.5,0,0,1-.37-.41l-1-1.26L92.37,342c-3-3.94-7.25-9.32-12-15.18s-9-11.27-11.92-15.27c-1.47-2-2.64-3.63-3.44-4.76-.36-.54-.66-1-.9-1.32A2.73,2.73,0,0,1,63.79,305Z" style="fill: rgb(224, 224, 224); transform-origin: 80.5313px 326.67px;" id="eljy420h0kt8m" class="animable"></path><path d="M235.48,24.38a2.15,2.15,0,0,1,.38.42l1,1.26,3.57,4.66c3,3.94,7.24,9.31,12,15.17s9,11.28,11.92,15.28c1.47,2,2.64,3.62,3.43,4.76l.91,1.31a2,2,0,0,1,.28.48,2.5,2.5,0,0,1-.37-.41l-1-1.26c-.89-1.16-2.09-2.74-3.57-4.66-3-3.94-7.24-9.32-12-15.17s-9-11.28-11.92-15.28c-1.47-2-2.64-3.62-3.43-4.76l-.91-1.32A2.73,2.73,0,0,1,235.48,24.38Z" style="fill: rgb(224, 224, 224); transform-origin: 252.225px 46.05px;" id="el42vs2z3mj73" class="animable"></path><path d="M92.17,64.27s.15.13.38.42l1,1.26,3.57,4.66c3,3.94,7.24,9.31,12,15.17s9,11.28,11.92,15.27c1.47,2,2.64,3.63,3.43,4.77l.91,1.31a2,2,0,0,1,.28.48,2.5,2.5,0,0,1-.37-.41l-1-1.26-3.57-4.66c-3-3.94-7.24-9.32-12-15.17s-9-11.28-11.92-15.28c-1.47-2-2.64-3.63-3.43-4.76l-.91-1.32A2.73,2.73,0,0,1,92.17,64.27Z" style="fill: rgb(224, 224, 224); transform-origin: 108.915px 85.94px;" id="el8xoac5y9pil" class="animable"></path><path d="M16.93,188.11a6.16,6.16,0,0,1,.85,1l2.16,2.8,3.18,4.16c1.22,1.54,2.52,3.27,4.08,4.91a59.94,59.94,0,0,1,4.08,5c1.19,1.58,2.23,3,3.1,4.23s1.56,2.21,2,2.9a6.41,6.41,0,0,1,.69,1.1,6.31,6.31,0,0,1-.85-1c-.57-.75-1.3-1.68-2.16-2.8l-3.18-4.16c-1.22-1.55-2.53-3.28-4.08-4.92a61.57,61.57,0,0,1-4.08-5c-1.19-1.58-2.23-3-3.1-4.23s-1.56-2.21-2-2.9A6.46,6.46,0,0,1,16.93,188.11Z" style="fill: rgb(224, 224, 224); transform-origin: 27px 201.16px;" id="eln3gwhk8d39p" class="animable"></path><path d="M346.5,20.83s.16.15.41.47l1.1,1.43c.94,1.24,2.28,3.06,3.92,5.31,3.28,4.52,7.7,10.83,12.49,17.86s9.16,13.38,12.36,18l3.79,5.41c.42.61.75,1.1,1,1.48a2.64,2.64,0,0,1,.32.54,3.25,3.25,0,0,1-.41-.48l-1.09-1.42c-1-1.24-2.28-3.06-3.93-5.32-3.28-4.51-7.7-10.83-12.49-17.86s-9.16-13.38-12.36-17.94l-3.79-5.41-1-1.49A3.38,3.38,0,0,1,346.5,20.83Z" style="fill: rgb(224, 224, 224); transform-origin: 364.195px 46.08px;" id="elfksoxad941v" class="animable"></path><path d="M27,255.19a6.31,6.31,0,0,1,.85,1c.57.75,1.29,1.69,2.16,2.8s2,2.62,3.18,4.16,2.52,3.28,4.08,4.92a61.57,61.57,0,0,1,4.08,5c1.19,1.58,2.23,3,3.1,4.24s1.55,2.2,2,2.89a6.67,6.67,0,0,1,.69,1.11,6.16,6.16,0,0,1-.85-1l-2.16-2.79L41,273.33c-1.22-1.55-2.53-3.28-4.08-4.92a59.94,59.94,0,0,1-4.08-5c-1.19-1.58-2.23-3-3.1-4.23s-1.56-2.21-2-2.9A6.67,6.67,0,0,1,27,255.19Z" style="fill: rgb(224, 224, 224); transform-origin: 37.07px 268.25px;" id="el9u5gl2lnywd" class="animable"></path><path d="M16.93,86.51a6.16,6.16,0,0,1,.85,1l2.16,2.8,3.18,4.16c1.22,1.54,2.52,3.27,4.08,4.91a59.94,59.94,0,0,1,4.08,5c1.19,1.58,2.23,3,3.1,4.23s1.56,2.21,2,2.9a6.41,6.41,0,0,1,.69,1.1,6.31,6.31,0,0,1-.85-1c-.57-.75-1.3-1.68-2.16-2.8l-3.18-4.16c-1.22-1.55-2.53-3.28-4.08-4.92a61.57,61.57,0,0,1-4.08-5c-1.19-1.58-2.23-3-3.1-4.23s-1.56-2.21-2-2.9A6.46,6.46,0,0,1,16.93,86.51Z" style="fill: rgb(224, 224, 224); transform-origin: 27px 99.56px;" id="el6yosnr2l79x" class="animable"></path><path d="M162,72.19a7,7,0,0,1,.87,1l2.21,2.9c1.86,2.46,4.39,5.88,7.15,9.68s5.26,7.25,7,9.77c.84,1.2,1.54,2.2,2.09,3a6.27,6.27,0,0,1,.7,1.14,6.91,6.91,0,0,1-.87-1L179,95.78c-1.86-2.46-4.39-5.89-7.16-9.69s-5.25-7.25-7-9.76l-2.09-3A6.71,6.71,0,0,1,162,72.19Z" style="fill: rgb(224, 224, 224); transform-origin: 172.01px 85.935px;" id="el333k9tfea9x" class="animable"></path><path d="M174.32,211.63a20.85,20.85,0,0,1,2.15,2.63l2.21,2.94,1.29,1.74.68.93,0,0h0c.37-.27-.52.37-.43.3h0v0l0-.05-.09-.12-.17-.24-.35-.48-.36-.48-.17-.24-.08-.12,0-.06h0c-.38.27.51-.37.41-.31h0l0,0,.67.93,1.27,1.77c.77,1.1,1.49,2.11,2.12,3a21.32,21.32,0,0,1,1.85,2.85,20.85,20.85,0,0,1-2.15-2.63l-2.21-2.94c-.41-.56-.85-1.14-1.29-1.75l-.68-.92,0,0h0c-.09.07.79-.58.42-.3h0l0,.06.09.12.17.24.36.48.35.48.17.24.09.12,0,.06h0c.09-.07-.79.58-.41.31h0l0,0-.67-.93-1.27-1.76-2.12-3A20.93,20.93,0,0,1,174.32,211.63Z" style="fill: rgb(224, 224, 224); transform-origin: 179.82px 219.125px;" id="elnt0g89xqwnf" class="animable"></path><path d="M407.57,268.23c.12-.09,10.2,13.55,22.53,30.46s22.23,30.68,22.11,30.77S442,315.91,429.68,299,407.45,268.31,407.57,268.23Z" style="fill: rgb(224, 224, 224); transform-origin: 429.89px 298.845px;" id="elj4uhciy685e" class="animable"></path><path d="M417.32,226a6.73,6.73,0,0,1,.87,1l2.21,2.89c1.86,2.47,4.39,5.89,7.16,9.68s5.25,7.26,7,9.78l2.08,3a6.71,6.71,0,0,1,.7,1.14,7.82,7.82,0,0,1-.87-1l-2.21-2.9c-1.85-2.46-4.38-5.88-7.15-9.68s-5.26-7.25-7-9.77l-2.08-3A5.9,5.9,0,0,1,417.32,226Z" style="fill: rgb(224, 224, 224); transform-origin: 427.33px 239.745px;" id="elza6tfyuzoa" class="animable"></path><path d="M455.73,201.15a3,3,0,0,1,.37.42l1,1.26,3.56,4.66c3,3.94,7.25,9.31,12,15.17s9,11.28,11.92,15.28c1.47,2,2.65,3.62,3.44,4.76l.9,1.32c.21.3.31.46.29.47s-.14-.13-.37-.41l-1-1.26-3.56-4.66c-3-3.94-7.25-9.31-12-15.17s-9-11.28-11.92-15.28c-1.47-2-2.65-3.62-3.44-4.76l-.9-1.32A2.11,2.11,0,0,1,455.73,201.15Z" style="fill: rgb(224, 224, 224); transform-origin: 472.471px 222.82px;" id="elehpqtmm1yc8" class="animable"></path><path d="M465.48,158.94a6.27,6.27,0,0,1,.87,1l2.21,2.9c1.86,2.46,4.39,5.88,7.16,9.68s5.25,7.25,7,9.77l2.08,3a6.27,6.27,0,0,1,.7,1.14,7.75,7.75,0,0,1-.87-1l-2.21-2.9c-1.85-2.46-4.39-5.89-7.15-9.69s-5.26-7.25-7-9.76l-2.09-3A6.71,6.71,0,0,1,465.48,158.94Z" style="fill: rgb(224, 224, 224); transform-origin: 475.49px 172.685px;" id="eluwfxxzrhi4" class="animable"></path><path d="M465.42,285a21.45,21.45,0,0,1,2.14,2.63l2.22,2.94,1.29,1.74.68.93,0,0h0l-.42.3h0l0-.06-.08-.12-.18-.24-.35-.48-.35-.48-.17-.24-.09-.12,0-.06h0l.42-.31h0l0,0,.68.94c.43.6.86,1.19,1.26,1.76.78,1.1,1.49,2.11,2.13,3a21.76,21.76,0,0,1,1.84,2.85,22.66,22.66,0,0,1-2.14-2.63L472,294.43l-1.3-1.74-.68-.93,0,0h0l.42-.3h0v0l0,.05.09.12.17.24.35.48.35.48.18.24.08.12,0,.06h0l-.42.31s0,0,0,0l0,0-.68-.94c-.43-.6-.86-1.19-1.26-1.76l-2.12-3A21.32,21.32,0,0,1,465.42,285Z" style="fill: rgb(224, 224, 224); transform-origin: 470.93px 292.49px;" id="el3tq1ufp7b7e" class="animable"></path><path d="M356.79,133.64c.12-.09,10.21,13.55,22.53,30.46s22.23,30.68,22.11,30.77-10.2-13.55-22.53-30.47S356.68,133.72,356.79,133.64Z" style="fill: rgb(224, 224, 224); transform-origin: 379.11px 164.255px;" id="elcs36n7x13nc" class="animable"></path><path d="M366.54,91.42a6.91,6.91,0,0,1,.87,1l2.22,2.9c1.85,2.46,4.38,5.89,7.15,9.68s5.25,7.26,7,9.77l2.08,3a6.06,6.06,0,0,1,.71,1.14,6.27,6.27,0,0,1-.87-1l-2.22-2.9c-1.85-2.46-4.38-5.88-7.15-9.68s-5.25-7.25-7-9.77l-2.08-3A6.83,6.83,0,0,1,366.54,91.42Z" style="fill: rgb(224, 224, 224); transform-origin: 376.555px 105.165px;" id="el8dze42dz6bc" class="animable"></path><path d="M422.51,74.74a2.38,2.38,0,0,1,.37.42l1,1.25,3.57,4.67c3,3.94,7.24,9.31,12,15.17s9,11.27,11.92,15.27c1.47,2,2.64,3.63,3.44,4.77l.9,1.31a3.25,3.25,0,0,1,.29.48s-.14-.13-.37-.42l-1-1.25-3.56-4.67c-3-3.94-7.25-9.31-12-15.17s-9-11.27-11.92-15.27c-1.46-2-2.64-3.63-3.43-4.77l-.91-1.31A2,2,0,0,1,422.51,74.74Z" style="fill: rgb(224, 224, 224); transform-origin: 439.255px 96.41px;" id="elg3gg81wpluo" class="animable"></path><path d="M445.7,58.43a6.91,6.91,0,0,1,.87,1l2.22,2.9c1.85,2.47,4.38,5.89,7.15,9.68s5.25,7.26,7,9.78l2.08,3a7.36,7.36,0,0,1,.71,1.14,6.27,6.27,0,0,1-.87-1c-.59-.76-1.33-1.74-2.22-2.9-1.85-2.46-4.38-5.88-7.15-9.68s-5.25-7.25-7-9.77l-2.08-3A6.83,6.83,0,0,1,445.7,58.43Z" style="fill: rgb(224, 224, 224); transform-origin: 455.715px 72.18px;" id="elxy19tt6qbcr" class="animable"></path><path d="M40.24,46a6.27,6.27,0,0,1,.87,1l2.22,2.9c1.85,2.46,4.38,5.88,7.15,9.68s5.25,7.25,7,9.77l2.08,3a7.83,7.83,0,0,1,.71,1.14,6.91,6.91,0,0,1-.87-1l-2.22-2.9c-1.85-2.46-4.38-5.88-7.15-9.68s-5.26-7.26-7-9.77C42.19,49,41.5,48,41,47.16A6.06,6.06,0,0,1,40.24,46Z" style="fill: rgb(224, 224, 224); transform-origin: 50.255px 59.745px;" id="els2ul8owkws" class="animable"></path><path d="M417,121.6a21.84,21.84,0,0,1,2.15,2.63l2.21,2.94,1.29,1.75c.23.3.45.61.68.93l0,0h0c.37-.28-.51.37-.42.3h0l0-.06-.09-.12-.17-.24-.35-.48-.35-.48-.18-.24-.08-.11-.05-.06v0h0l.42-.31h0l0,0,.67.93,1.27,1.76,2.12,3a20.58,20.58,0,0,1,1.85,2.85,23.09,23.09,0,0,1-2.15-2.63c-.65-.88-1.4-1.87-2.21-2.94-.41-.56-.84-1.15-1.29-1.75l-.68-.93,0,0s0,0,0,0l.42-.3h0l.05.06.08.12.18.24.35.48.35.48.17.24.09.12,0,0v0h0c.1-.06-.79.58-.41.31h0l0,0-.67-.93L421,127.46l-2.12-3A23.28,23.28,0,0,1,417,121.6Z" style="fill: rgb(224, 224, 224); transform-origin: 422.485px 129.095px;" id="elzgh9834a4gm" class="animable"></path><path d="M287.68,324.28c.12-.09,10.21,13.55,22.53,30.46s22.23,30.68,22.11,30.77S322.12,372,309.79,355,287.57,324.36,287.68,324.28Z" style="fill: rgb(224, 224, 224); transform-origin: 310px 354.895px;" id="eloo5w9wos29k" class="animable"></path><path d="M297.43,282.06a6.91,6.91,0,0,1,.87,1l2.22,2.9c1.85,2.46,4.38,5.88,7.15,9.68s5.25,7.26,7,9.77l2.08,3a6.83,6.83,0,0,1,.71,1.14,6.27,6.27,0,0,1-.87-1l-2.22-2.9c-1.85-2.46-4.38-5.88-7.15-9.68s-5.25-7.25-7-9.77l-2.08-3A6.06,6.06,0,0,1,297.43,282.06Z" style="fill: rgb(224, 224, 224); transform-origin: 307.445px 295.805px;" id="elttxtqjeigq" class="animable"></path><path d="M335.84,257.2s.14.13.37.42l1,1.26,3.56,4.66c3,3.94,7.25,9.31,12,15.17s9,11.28,11.93,15.27c1.46,2,2.64,3.63,3.43,4.77l.91,1.31a2,2,0,0,1,.28.48,2.5,2.5,0,0,1-.37-.41l-1-1.26-3.57-4.66c-3-3.94-7.24-9.32-12-15.18s-9-11.27-11.92-15.27c-1.47-2-2.64-3.63-3.44-4.76-.36-.54-.66-1-.9-1.32A2.73,2.73,0,0,1,335.84,257.2Z" style="fill: rgb(224, 224, 224); transform-origin: 352.58px 278.87px;" id="el80lsiiou14w" class="animable"></path><path d="M345.59,215a5.74,5.74,0,0,1,.87,1c.59.76,1.33,1.74,2.22,2.9,1.85,2.46,4.38,5.88,7.15,9.68s5.25,7.25,7,9.77l2.08,3a8.54,8.54,0,0,1,.71,1.14,5.74,5.74,0,0,1-.87-1c-.59-.76-1.33-1.73-2.22-2.9-1.85-2.46-4.38-5.88-7.15-9.68s-5.26-7.25-7-9.77l-2.08-3A6.46,6.46,0,0,1,345.59,215Z" style="fill: rgb(224, 224, 224); transform-origin: 355.605px 228.745px;" id="elf2rf9whr8gq" class="animable"></path><path d="M345.53,341a21,21,0,0,1,2.15,2.63l2.21,2.94,1.29,1.74.68.93,0,0h0l-.42.3h0v0l-.05-.06-.08-.11-.18-.24-.35-.48-.35-.48-.17-.24-.09-.12,0-.06v0h0c-.38.27.5-.37.41-.31h0l0,0,.68.93,1.27,1.77c.77,1.1,1.48,2.11,2.12,3a24.23,24.23,0,0,1,1.85,2.85,21.84,21.84,0,0,1-2.15-2.63l-2.21-2.94c-.42-.56-.85-1.14-1.29-1.75l-.68-.92,0,0h0c-.09.06.8-.58.42-.31h0l0,.06.09.12.17.24.35.48.35.48.18.24.08.12.05.06h0c.09-.07-.79.58-.42.3h0l0,0-.67-.93-1.27-1.76-2.12-3A21.7,21.7,0,0,1,345.53,341Z" style="fill: rgb(224, 224, 224); transform-origin: 351.015px 348.495px;" id="el7lk8cnqsdev" class="animable"></path><path d="M236.91,189.68c.11-.08,10.2,13.56,22.53,30.46s22.22,30.69,22.11,30.77S271.34,237.36,259,220.45,236.79,189.77,236.91,189.68Z" style="fill: rgb(224, 224, 224); transform-origin: 259.23px 220.295px;" id="elht80bjvmy9r" class="animable"></path><path d="M246.66,147.47a7.82,7.82,0,0,1,.87,1l2.21,2.9c1.85,2.46,4.38,5.88,7.15,9.68s5.26,7.26,7,9.77c.84,1.2,1.53,2.21,2.08,3a6.06,6.06,0,0,1,.71,1.14,6.27,6.27,0,0,1-.87-1c-.58-.77-1.33-1.74-2.22-2.9-1.85-2.46-4.38-5.88-7.15-9.68s-5.25-7.26-7-9.77l-2.08-3A6.27,6.27,0,0,1,246.66,147.47Z" style="fill: rgb(224, 224, 224); transform-origin: 256.67px 161.215px;" id="elza3oa7g7q9" class="animable"></path><path d="M285.07,122.61a2.38,2.38,0,0,1,.37.42l1,1.25L290,129c3,3.94,7.24,9.31,12,15.16s9,11.28,11.92,15.28c1.47,2,2.64,3.63,3.43,4.77l.91,1.31a3.25,3.25,0,0,1,.29.48s-.15-.13-.37-.42-.59-.75-1-1.25l-3.56-4.67c-3-3.94-7.25-9.31-12-15.17s-9-11.27-11.92-15.27c-1.47-2-2.64-3.63-3.43-4.77l-.91-1.31A2,2,0,0,1,285.07,122.61Z" style="fill: rgb(224, 224, 224); transform-origin: 301.81px 144.305px;" id="el04cj24qy3tgh" class="animable"></path><path d="M294.81,80.39a6.91,6.91,0,0,1,.87,1l2.22,2.9c1.85,2.47,4.38,5.89,7.15,9.68s5.26,7.26,7,9.78l2.08,3a6.46,6.46,0,0,1,.71,1.14,6.27,6.27,0,0,1-.87-1c-.59-.76-1.33-1.74-2.22-2.9-1.85-2.46-4.38-5.88-7.15-9.68s-5.25-7.25-7-9.77l-2.08-3A7.83,7.83,0,0,1,294.81,80.39Z" style="fill: rgb(224, 224, 224); transform-origin: 304.825px 94.14px;" id="elc84hh6zgk3l" class="animable"></path><path d="M294.75,206.44a21.84,21.84,0,0,1,2.15,2.63l2.21,2.94,1.29,1.75.68.93,0,0h0c.37-.28-.51.37-.42.3h0v0l0-.06-.09-.12-.17-.23-.35-.49-.35-.48-.18-.24-.08-.11-.05-.06v0h0l.42-.31h0l0,0,.67.93,1.27,1.77c.78,1.09,1.49,2.1,2.12,3a20.58,20.58,0,0,1,1.85,2.85,23.09,23.09,0,0,1-2.15-2.63c-.65-.88-1.4-1.87-2.21-2.94-.41-.56-.84-1.15-1.29-1.75l-.68-.92,0,0s0,0,0,0l.42-.3h0l.05.06.08.12.18.24.35.48.35.48.17.24.09.12,0,.06h0c.1-.06-.79.58-.41.31h0l0,0-.67-.93-1.27-1.76-2.12-3A23.28,23.28,0,0,1,294.75,206.44Z" style="fill: rgb(224, 224, 224); transform-origin: 300.235px 213.94px;" id="el8bphrz76gnw" class="animable"></path><path d="M115.93,240.07a6.92,6.92,0,0,1,1.07,1.07c.67.71,1.6,1.76,2.73,3.08,2.26,2.65,5.26,6.4,8.33,10.74s5.61,8.42,7.35,11.43c.88,1.5,1.56,2.73,2,3.6a8.25,8.25,0,0,1,.65,1.36,7.79,7.79,0,0,1-.83-1.26l-2.14-3.51c-1.82-3-4.41-7-7.46-11.32s-6-8.1-8.19-10.8l-2.6-3.19A10.56,10.56,0,0,1,115.93,240.07Z" style="fill: rgb(224, 224, 224); transform-origin: 126.995px 255.71px;" id="elbmlfx7r7so" class="animable"></path><path d="M119.63,51.52c.12-.09,4.54,5.22,9.89,11.85s9.59,12.09,9.47,12.18-4.53-5.21-9.88-11.85S119.52,51.61,119.63,51.52Z" style="fill: rgb(224, 224, 224); transform-origin: 129.31px 63.535px;" id="elucwnok7a0gp" class="animable"></path></g><g id="freepik--Character--inject-75" class="animable" style="transform-origin: 231.44px 245.515px;"><path d="M221.94,85.37c-2.75-5.55-8.95-8.74-15.1-9.51s-12.35.5-18.42,1.75l-3.94,3.31a82.84,82.84,0,0,0-6,37.57c.42,5.58,1.48,11.3,4.62,15.93,4.31,6.36,11.8,9.66,18.88,12.63,1.25.52,2.71,1,3.89.37a4.53,4.53,0,0,0,1.64-2.35c5.72-13.89,11.47-27.86,14.84-42.5C223.65,96.87,224.53,90.62,221.94,85.37Z" style="fill: rgb(28, 56, 121); transform-origin: 200.933px 111.673px;" id="el7j6uy0u616m" class="animable"></path><g id="el4tujgw2k3mr"><g style="opacity: 0.3; transform-origin: 202.874px 111.891px;" class="animable"><path d="M223.88,85.59c-2.75-5.56-8.95-8.74-15.1-9.51s-12.35.49-18.42,1.75l-3.94,3.31a82.93,82.93,0,0,0-6,37.56c.42,5.58,1.48,11.31,4.62,15.94,4.31,6.36,11.8,9.65,18.88,12.63,1.25.52,2.72,1,3.89.36a4.49,4.49,0,0,0,1.64-2.35c5.72-13.89,11.47-27.85,14.84-42.49C225.59,97.08,226.47,90.83,223.88,85.59Z" id="elmlqz0uqwzg" class="animable" style="transform-origin: 202.874px 111.891px;"></path></g></g><path d="M191.45,79.8l-2.1-2.08c-2.79,1.24-4.08,4.54-4.55,7.61s-.4,6.29-1.68,9.11c-1,2.17-2.76,4.18-2.55,6.56s2.21,4.09,2.22,6.36.06,10.78.06,13c0,14.08,12.21,22.41,21.66,21.27,9.26-.82-1.25-6.25,8-8.42C210.08,116.88,199.8,93.89,191.45,79.8Z" style="fill: rgb(38, 50, 56); transform-origin: 196.531px 109.727px;" id="el7nqrlpsq7zv" class="animable"></path><path d="M204.54,143.7Z" style="fill: rgb(255, 190, 157); transform-origin: 204.54px 143.7px;" id="elrgx171rl4el" class="animable"></path><path d="M187.3,94.33c-.64-11.08,7.24-21.21,18.23-22.55a20.5,20.5,0,0,1,22.93,18.69l2.73,46.78a4.18,4.18,0,0,1-.7,2.55,18.71,18.71,0,0,1-11.92,7.77c-4.22.6-8.91,5.89-12.5,3.86-1.21-.69-1.54-8.42-1.56-9.84l-.19-10.47a.07.07,0,0,0-.07-.07,13.84,13.84,0,0,1-2.88-.08c-2.71-.68-9.63-3.39-12-13.75C188.65,113.78,187.87,104,187.3,94.33Z" style="fill: rgb(255, 190, 157); transform-origin: 209.23px 111.759px;" id="elc8n5ml4p57w" class="animable"></path><path d="M202.38,109.62a11.49,11.49,0,0,0-3-.32c-.47,0-.91-.08-1-.39a2.39,2.39,0,0,1,.22-1.4c.36-1.15.74-2.36,1.14-3.62,1.58-5.16,2.7-9.39,2.49-9.45s-1.66,4.07-3.24,9.23c-.37,1.27-.74,2.48-1.08,3.64a2.78,2.78,0,0,0-.13,1.84,1.16,1.16,0,0,0,.81.62,3.24,3.24,0,0,0,.79.06A12.45,12.45,0,0,0,202.38,109.62Z" style="fill: rgb(38, 50, 56); transform-origin: 200.031px 102.143px;" id="elhf9uovl5zic" class="animable"></path><path d="M190.3,98.24c.2.23,1.4-.81,3.13-.86s3,.87,3.19.63-.12-.52-.68-1a4.09,4.09,0,0,0-2.56-.78,4,4,0,0,0-2.49,1C190.37,97.72,190.2,98.14,190.3,98.24Z" style="fill: rgb(38, 50, 56); transform-origin: 193.474px 97.2501px;" id="elqkhp1k6z2if" class="animable"></path><path d="M207.8,98.69c.24.22,1.49-.94,3.37-1.1s3.35.71,3.53.45-.16-.54-.8-1a4.59,4.59,0,0,0-2.85-.66,4.49,4.49,0,0,0-2.65,1.18C207.85,98.13,207.69,98.59,207.8,98.69Z" style="fill: rgb(38, 50, 56); transform-origin: 211.258px 97.5381px;" id="eldblcye11ya7" class="animable"></path><path d="M204.32,131.05s7,.07,15.42-5.81c0,0-2.17,9.45-15.37,9.15Z" style="fill: rgb(235, 153, 110); transform-origin: 212.03px 129.818px;" id="elhth0kxhlept" class="animable"></path><path d="M203.42,113.94a3.25,3.25,0,0,1,2.84-1.42,3,3,0,0,1,2.13,1,1.91,1.91,0,0,1,.28,2.16,2.23,2.23,0,0,1-2.34.77,6.86,6.86,0,0,1-2.39-1.22,2.25,2.25,0,0,1-.56-.5.65.65,0,0,1,0-.68" style="fill: rgb(235, 153, 110); transform-origin: 206.084px 114.523px;" id="elzg0hr9iwcd" class="animable"></path><path d="M207.78,110.5c-.3,0-.17,2-1.77,3.49s-3.69,1.45-3.69,1.72.49.35,1.37.31a4.9,4.9,0,0,0,3.09-1.33,4.3,4.3,0,0,0,1.36-2.91C208.16,111,207.91,110.47,207.78,110.5Z" style="fill: rgb(38, 50, 56); transform-origin: 205.231px 113.264px;" id="elmqpbckdw0tm" class="animable"></path><path d="M207.52,91.44c.21.48,2,.1,4.14.2s3.9.54,4.15.07c.11-.22-.22-.66-.95-1.08a6.66,6.66,0,0,0-3.12-.84,6.85,6.85,0,0,0-3.19.63C207.79,90.79,207.43,91.21,207.52,91.44Z" style="fill: rgb(38, 50, 56); transform-origin: 211.669px 90.8531px;" id="elw1kx65qbasb" class="animable"></path><path d="M189.93,91.83c.36.41,1.82,0,3.56,0s3.21.29,3.56-.14c.15-.21-.08-.62-.72-1a5.57,5.57,0,0,0-2.89-.69,5.48,5.48,0,0,0-2.85.82C190,91.2,189.77,91.62,189.93,91.83Z" style="fill: rgb(38, 50, 56); transform-origin: 193.487px 91.0043px;" id="el9anhyzh2c" class="animable"></path><path d="M203.91,69.44a6.12,6.12,0,0,1,4.68-2.69c8-1.24,17,3.69,21.49,10.59s4.74,17.19,1.45,24.76l-5-3.2c-10.06-4.23-17.16-14.11-23.63-24.33C202,73.18,203.09,70.87,203.91,69.44Z" style="fill: rgb(38, 50, 56); transform-origin: 218.16px 84.3293px;" id="elmggp7bn1tch" class="animable"></path><path d="M191.56,74c3.36-3.9,5.8-7.78,12.77-5.07,1,2-1,4.57-2.77,6.08-2.53,2.22-4.74,3.71-6.4,5.29-3.35,3.21-7.17,14-7.49,19.84,0,.37-.65-5-1-5.1s-2.36-2.43-2.1-5.66C185.44,78.31,188.2,77.85,191.56,74Z" style="fill: rgb(38, 50, 56); transform-origin: 194.572px 84.0921px;" id="elo4mwlp2agsc" class="animable"></path><path d="M208.59,66.75a2.72,2.72,0,0,0-1.57.14A6.64,6.64,0,0,0,203.85,69a5.64,5.64,0,0,0-.63.93,5,5,0,0,0-.37,1,11,11,0,0,0-.41,1.68,2.43,2.43,0,0,0,.15,1.6c.08,0,0-.61.19-1.53a12.9,12.9,0,0,1,.5-1.61,5,5,0,0,1,.35-.89,5.81,5.81,0,0,1,.59-.84,7.46,7.46,0,0,1,2.91-2.11C208,66.88,208.6,66.83,208.59,66.75Z" style="fill: rgb(69, 90, 100); transform-origin: 205.479px 70.4515px;" id="eld77iwqhrab" class="animable"></path><path d="M191.89,101.62a1.54,1.54,0,0,0,1.44,1.6,1.47,1.47,0,0,0,1.6-1.37,1.54,1.54,0,0,0-1.44-1.6A1.46,1.46,0,0,0,191.89,101.62Z" style="fill: rgb(38, 50, 56); transform-origin: 193.41px 101.735px;" id="elzofahmen4z" class="animable"></path><path d="M208.68,101.73a1.54,1.54,0,0,0,1.44,1.6,1.48,1.48,0,0,0,1.6-1.38,1.56,1.56,0,0,0-1.44-1.6A1.47,1.47,0,0,0,208.68,101.73Z" style="fill: rgb(38, 50, 56); transform-origin: 210.2px 101.84px;" id="el6v08636kuay" class="animable"></path><path d="M226.52,98.9c.19-.1,7.6-3.09,8.07,4.87s-7.45,6.8-7.48,6.57S226.52,98.9,226.52,98.9Z" style="fill: rgb(255, 190, 157); transform-origin: 230.565px 104.4px;" id="elkpmqs90yqzm" class="animable"></path><path d="M229.31,107.18s.15.09.38.18a1.35,1.35,0,0,0,1,0c.8-.36,1.42-1.74,1.37-3.18a4.58,4.58,0,0,0-.5-2,1.56,1.56,0,0,0-1.08-1,.69.69,0,0,0-.78.43c-.09.23,0,.38-.07.4s-.18-.12-.14-.45a1,1,0,0,1,.28-.52,1,1,0,0,1,.74-.25,1.89,1.89,0,0,1,1.49,1.15,4.78,4.78,0,0,1,.61,2.18c0,1.61-.67,3.16-1.78,3.56a1.42,1.42,0,0,1-1.26-.13C229.34,107.37,229.29,107.19,229.31,107.18Z" style="fill: rgb(235, 153, 110); transform-origin: 230.958px 104.279px;" id="elhhpqnas5szi" class="animable"></path><path d="M198.76,101a12.55,12.55,0,0,0-.24-1.78,7.34,7.34,0,0,0-2.57-4,7,7,0,0,0-6.69-1.13,6.87,6.87,0,0,0-1.81,1,6.76,6.76,0,0,0-1.51,1.51,7.32,7.32,0,0,0-.14,8.53,6.79,6.79,0,0,0,1.47,1.55,6.36,6.36,0,0,0,1.78,1,6.86,6.86,0,0,0,3.71.38,7,7,0,0,0,3-1.29,7.29,7.29,0,0,0,2.69-3.94,12,12,0,0,0,.3-1.78s0,0,0,.12v.35a3.14,3.14,0,0,1,0,.57c0,.22-.07.48-.15.77a7.32,7.32,0,0,1-2.68,4.06,7,7,0,0,1-3.08,1.36,7.12,7.12,0,0,1-3.84-.37,6.74,6.74,0,0,1-1.84-1,6.91,6.91,0,0,1-1.53-1.61,7.55,7.55,0,0,1,.14-8.84,6.87,6.87,0,0,1,1.58-1.56,6.45,6.45,0,0,1,1.87-1,7.1,7.1,0,0,1,3.85-.25,7.25,7.25,0,0,1,3,1.46,7.43,7.43,0,0,1,2.55,4.15,7,7,0,0,1,.12.77,3,3,0,0,1,0,.57v.35C198.77,101,198.77,101,198.76,101Z" style="fill: rgb(69, 90, 100); transform-origin: 191.518px 100.943px;" id="el8eqzpcqdabf" class="animable"></path><path d="M218.46,101.31a11.93,11.93,0,0,0-.25-1.78,7.35,7.35,0,0,0-2.56-4,7.11,7.11,0,0,0-3-1.39,7,7,0,0,0-3.72.26,6.72,6.72,0,0,0-1.81,1,6.8,6.8,0,0,0-1.52,1.51,7.3,7.3,0,0,0-.13,8.53,6.83,6.83,0,0,0,1.47,1.56,6.68,6.68,0,0,0,1.77,1,7,7,0,0,0,6.73-.91,7.35,7.35,0,0,0,2.69-3.94,12,12,0,0,0,.3-1.78s0,0,0,.12,0,.21,0,.35a3.25,3.25,0,0,1-.06.57,5.06,5.06,0,0,1-.14.77,7.37,7.37,0,0,1-2.68,4.07,7.1,7.1,0,0,1-6.92,1,6.49,6.49,0,0,1-1.84-1,6.91,6.91,0,0,1-1.53-1.61,7.55,7.55,0,0,1,.14-8.84,7.21,7.21,0,0,1,3.45-2.54,7.15,7.15,0,0,1,6.89,1.21,7.33,7.33,0,0,1,2.54,4.16,5,5,0,0,1,.13.77,4,4,0,0,1,0,.56v.36C218.47,101.27,218.47,101.31,218.46,101.31Z" style="fill: rgb(69, 90, 100); transform-origin: 211.182px 101.295px;" id="ellcmjooreze" class="animable"></path><path d="M204.39,100.77s-.24-.31-.71-.7a3.61,3.61,0,0,0-2.16-.82,3.56,3.56,0,0,0-2.19.74c-.49.37-.7.7-.74.67a1.94,1.94,0,0,1,.62-.82,3.42,3.42,0,0,1,2.31-.86,3.49,3.49,0,0,1,2.28.94A1.79,1.79,0,0,1,204.39,100.77Z" style="fill: rgb(69, 90, 100); transform-origin: 201.49px 99.8749px;" id="elgo0ru7mrlb" class="animable"></path><path d="M228.31,98.39a6.08,6.08,0,0,1-1.44.31c-.9.14-2.15.28-3.53.4l-3.53.33a9.05,9.05,0,0,1-1.46.11,7.27,7.27,0,0,1,1.44-.3c.9-.15,2.15-.28,3.53-.41l3.53-.32A10.06,10.06,0,0,1,228.31,98.39Z" style="fill: rgb(69, 90, 100); transform-origin: 223.33px 98.9651px;" id="el46zwbb3b247" class="animable"></path><path d="M187.39,105.49a9.52,9.52,0,0,1-1.53-2.51,9.31,9.31,0,0,1-.44-2.93,2.09,2.09,0,0,0-.15.88,5.73,5.73,0,0,0,1.44,4C187.08,105.33,187.37,105.52,187.39,105.49Z" style="fill: rgb(255, 255, 255); transform-origin: 186.328px 102.772px;" id="elaqrckggpd2t" class="animable"></path><path d="M186.15,97.27c0-.06-.33.09-.49.44s-.1.68,0,.67.13-.26.27-.55S186.2,97.33,186.15,97.27Z" style="fill: rgb(255, 255, 255); transform-origin: 185.861px 97.8187px;" id="elhwt8kroe5ev" class="animable"></path><path d="M205.38,103.92s-.1-.42-.22-1.09a8.06,8.06,0,0,1,0-2.64,7.79,7.79,0,0,1,.91-2.46c.35-.59.62-.91.59-.94a2.81,2.81,0,0,0-.74.83,6.51,6.51,0,0,0-1,2.52,6.69,6.69,0,0,0,.06,2.72A2.71,2.71,0,0,0,205.38,103.92Z" style="fill: rgb(255, 255, 255); transform-origin: 205.735px 100.355px;" id="el9gcfdo5lmz" class="animable"></path><path d="M232.49,110.23a3.39,3.39,0,0,0,.26.45,2.81,2.81,0,0,1,.33,1.32,2.48,2.48,0,0,1-.72,1.81,2.54,2.54,0,0,1-2.21.72,2.6,2.6,0,0,1-1.82-1.46,2.5,2.5,0,0,1-.05-1.95A2.71,2.71,0,0,1,229,110c.25-.22.41-.31.4-.33a1.08,1.08,0,0,0-.46.24,2.72,2.72,0,0,0-.88,1.13,2.69,2.69,0,0,0,0,2.14,2.82,2.82,0,0,0,2,1.62,2.74,2.74,0,0,0,2.42-.81,2.64,2.64,0,0,0,.74-2,2.79,2.79,0,0,0-.43-1.37A1.2,1.2,0,0,0,232.49,110.23Z" style="fill: rgb(224, 224, 224); transform-origin: 230.531px 112.253px;" id="el2krt1l8wuqn" class="animable"></path><path d="M189.42,116.37a2.13,2.13,0,0,1-1.35.09,2.74,2.74,0,0,1-1.25-.79A3.39,3.39,0,0,1,186,114a3,3,0,0,1,.22-1.8,3.3,3.3,0,0,1,.91-1.2,5.15,5.15,0,0,1,1.22-.68.92.92,0,0,0-.38.06,2.86,2.86,0,0,0-1,.47,3.41,3.41,0,0,0-1,1.24,3.2,3.2,0,0,0-.25,2,3.47,3.47,0,0,0,.89,1.76,2.72,2.72,0,0,0,1.38.8,1.81,1.81,0,0,0,1.07-.06C189.33,116.48,189.43,116.38,189.42,116.37Z" style="fill: rgb(224, 224, 224); transform-origin: 187.54px 113.511px;" id="elwwun2rq4xj" class="animable"></path><path d="M218.64,93.77c1.93,3.9,3.88,8.51,2,12.43-1,2.08-3,3.64-3.65,5.86-.81,2.87.88,6,.09,8.87-.54,2-2.14,3.44-3.32,5.11a13.88,13.88,0,0,0-.22,15.32c3.81-1.51,8-1.23,12.14-1.34s-.7-1.17,2.22-4c2.06-2,2.54-6.21,3.09-9,1.35-7,7.39-17.1,3.62-23.18S227,97.41,220.14,95.5" style="fill: rgb(38, 50, 56); transform-origin: 223.587px 117.565px;" id="elsu4rb4ctnnm" class="animable"></path><path d="M183.17,84.33v5.46c3.55-6.86,8.13-12.15,14.85-14.16,1.95-.93,8,.12,9.62,1.54,5.83,5,18.56,18.3,17.48,37.67-.6,10.65-19.05,30.66-19.05,30.66l32.72-11s11.61-19.24,8.68-34.16S235.81,68,226.52,64.6c-2-.74-20.26-1-27.93,2.75C187.83,72.65,185.06,76.55,183.17,84.33Z" style="fill: rgb(28, 56, 121); transform-origin: 215.557px 104.825px;" id="elkh25bnghwjg" class="animable"></path><g id="elbt41t782kci"><g style="opacity: 0.3; transform-origin: 216.52px 70.1952px;" class="animable"><path d="M234.45,71.58c-.53-1-2.17-.25-2.58.81s-.31,2.36-1.06,3.21c-1,1.09-2.76.85-4,.08s-2.15-2-3.39-2.7-3.07-.88-3.94.27a15.28,15.28,0,0,0-.83,1.73c-.95,1.59-3.36,1.67-5,.73s-2.66-2.54-3.86-4S207.07,69,205.22,69c-1.43,0-2.72.82-4.12,1.12s-3.24-.29-3.38-1.71l0-.62A29,29,0,0,1,207.2,65c5.43-.6,15.92-1.56,19.32-.41A17.43,17.43,0,0,1,233.76,70c1.28,1.53,1.56,1.89,1.56,1.89Z" style="fill: rgb(255, 255, 255); transform-origin: 216.52px 70.1952px;" id="elhs76cehkdvv" class="animable"></path></g></g><path d="M242.37,89.41a70.16,70.16,0,0,0-2.65-6.73,70.2,70.2,0,0,0-3.8-6.16,6.68,6.68,0,0,1,1.48,1.55,25.27,25.27,0,0,1,2.78,4.37A24.36,24.36,0,0,1,242,87.29,7.12,7.12,0,0,1,242.37,89.41Z" style="fill: rgb(255, 255, 255); transform-origin: 239.145px 82.965px;" id="eloclzv8jq2l" class="animable"></path><path d="M230.28,92.23a38.8,38.8,0,0,0-3.37-7.46,39.63,39.63,0,0,0-5.27-6.27A8.35,8.35,0,0,1,223.58,80a22.18,22.18,0,0,1,3.77,4.52,22.45,22.45,0,0,1,2.45,5.35A8,8,0,0,1,230.28,92.23Z" style="fill: rgb(255, 255, 255); transform-origin: 225.96px 85.365px;" id="elepa57o08zj4" class="animable"></path><path d="M233.15,98.91c-.15,0-.24-.71-.45-1.54s-.46-1.5-.33-1.57.61.53.84,1.44S233.29,98.92,233.15,98.91Z" style="fill: rgb(255, 255, 255); transform-origin: 232.832px 97.3523px;" id="elw4yds2vwk2" class="animable"></path><path d="M186,81.47a11.61,11.61,0,0,1,2.09-5.29,11.75,11.75,0,0,1,4-4,45.15,45.15,0,0,0-3.57,4.32A42.7,42.7,0,0,0,186,81.47Z" style="fill: rgb(255, 255, 255); transform-origin: 189.045px 76.825px;" id="elayfgaspkuo" class="animable"></path><path d="M204.94,61.6a18.86,18.86,0,0,1-2.09-3.91,19,19,0,0,1-1.61-4.13,19.12,19.12,0,0,1,2.08,3.91A18.79,18.79,0,0,1,204.94,61.6Z" style="fill: rgb(38, 50, 56); transform-origin: 203.09px 57.58px;" id="el80lmd9jju6m" class="animable"></path><path d="M207.62,56a5.9,5.9,0,0,1-.05,2.43,5.94,5.94,0,0,1-.56,2.37,6,6,0,0,1,0-2.43A5.72,5.72,0,0,1,207.62,56Z" style="fill: rgb(38, 50, 56); transform-origin: 207.304px 58.4px;" id="eljto2zf9bio" class="animable"></path><path d="M196.26,59.11A7.81,7.81,0,0,1,199,60a7.72,7.72,0,0,1,2.5,1.35,8,8,0,0,1-2.7-.87A8,8,0,0,1,196.26,59.11Z" style="fill: rgb(38, 50, 56); transform-origin: 198.88px 60.23px;" id="el7a49g88b0k2" class="animable"></path><path d="M234.61,128.28a5.35,5.35,0,0,1,.14-.79c.11-.57.27-1.32.46-2.26.42-2,1-4.78,1.63-8.3A69.73,69.73,0,0,0,238,104.48a35.94,35.94,0,0,0-.75-7.31,24.46,24.46,0,0,0-2.71-7.36A48.17,48.17,0,0,0,230,83.32,56.5,56.5,0,0,0,224.88,78a51.65,51.65,0,0,0-10.2-7.18A50.5,50.5,0,0,0,207,67.44c-.94-.35-1.69-.53-2.19-.71a4.71,4.71,0,0,1-.76-.27,4,4,0,0,1,.79.17c.51.14,1.27.29,2.22.62a46.74,46.74,0,0,1,7.83,3.24,51.19,51.19,0,0,1,10.35,7.15A55.06,55.06,0,0,1,230.38,83,48.63,48.63,0,0,1,235,89.55a24.53,24.53,0,0,1,2.76,7.52,36.26,36.26,0,0,1,.73,7.41A67.43,67.43,0,0,1,237.2,117c-.65,3.53-1.31,6.34-1.79,8.29-.23.93-.42,1.67-.56,2.23A4.46,4.46,0,0,1,234.61,128.28Z" style="fill: rgb(38, 50, 56); transform-origin: 221.27px 97.37px;" id="ellr6yufvlgh" class="animable"></path><path d="M180,406.71,168.57,437.1l-38.13-13.62c1.52-3.56,25.4-3.12,25.4-3.12l7.14-20.6Z" style="fill: rgb(28, 56, 121); transform-origin: 155.22px 418.43px;" id="el0osqzftfhmcd" class="animable"></path><g id="elejhssumc2mv"><g style="opacity: 0.6; transform-origin: 165.818px 423.531px;" class="animable"><path d="M166.69,422.23a1.67,1.67,0,0,1,.44,2.16,1.59,1.59,0,0,1-2.14.46,1.74,1.74,0,0,1-.46-2.29,1.66,1.66,0,0,1,2.28-.23" style="fill: rgb(255, 255, 255); transform-origin: 165.818px 423.531px;" id="elothuew0r5sb" class="animable"></path></g></g><g id="elsyls0y2651l"><g style="opacity: 0.6; transform-origin: 150.005px 429.595px;" class="animable"><path d="M168.57,437.1l1-3.12-36.94-11.89s-2,.13-2.19,1.39Z" style="fill: rgb(255, 255, 255); transform-origin: 150.005px 429.595px;" id="el5s9jhr1ejxg" class="animable"></path></g></g><path d="M155.14,420.5c-.06.19.84.61,1.55,1.53s.91,1.88,1.1,1.87.31-1.18-.56-2.29S155.16,420.32,155.14,420.5Z" style="fill: rgb(38, 50, 56); transform-origin: 156.531px 422.17px;" id="el7f2d51iqdph" class="animable"></path><path d="M149.53,420.45c-.11.16.58.77.93,1.78s.24,1.91.43,2,.68-1,.22-2.21S149.6,420.27,149.53,420.45Z" style="fill: rgb(38, 50, 56); transform-origin: 150.41px 422.326px;" id="el61ubo3ax5m2" class="animable"></path><path d="M145.69,424.26c.16.1.75-.73.64-1.92s-.84-1.91-1-1.78.21.86.29,1.84S145.51,424.18,145.69,424.26Z" style="fill: rgb(38, 50, 56); transform-origin: 145.817px 422.407px;" id="elqxqfeveg2g9" class="animable"></path><path d="M157.26,415.51c0,.2,1,.25,2,.69s1.73,1.08,1.89.95-.4-1.07-1.62-1.58S157.22,415.33,157.26,415.51Z" style="fill: rgb(38, 50, 56); transform-origin: 159.218px 416.221px;" id="el0tzd5104kvjq" class="animable"></path><g id="elpdnd48k1d1c"><g style="opacity: 0.3; transform-origin: 152.547px 420.429px;" class="animable"><path d="M155.76,420.24c.48-1,.78-2.39,1.32-3.44a17.82,17.82,0,0,1,3.4,3.83c.59.78,1.05,1.88.49,2.69a1.87,1.87,0,0,1-2.37.37,5.42,5.42,0,0,1-1.77-1.91,4,4,0,0,1-7.22,0,6.55,6.55,0,0,1-3.36,1.2,2.4,2.4,0,0,1-2.38-2.35Z" style="fill: rgb(255, 255, 255); transform-origin: 152.547px 420.429px;" id="el2ir24iuhom2" class="animable"></path></g></g><path d="M155.19,420.9a20,20,0,0,1-5,.39,20.12,20.12,0,0,1-5-.35,30.1,30.1,0,0,1,5-.18A31.64,31.64,0,0,1,155.19,420.9Z" style="fill: rgb(255, 255, 255); transform-origin: 150.19px 421.02px;" id="elmknhjt20rt9" class="animable"></path><path d="M309.11,431.17l1.1-15.9L296.44,399l15.89-10.94.45.63,8.66,12.18,11,8.12L316.3,437.47l-16.59-.58S301.05,432.94,309.11,431.17Z" style="fill: rgb(28, 56, 121); transform-origin: 314.44px 412.765px;" id="el5owp1fhy6dm" class="animable"></path><g id="elwws6wpbsskp"><g style="opacity: 0.6; transform-origin: 316.065px 422.375px;" class="animable"><polygon points="332.42 409 316.3 437.47 299.71 436.89 301.67 434.46 315.19 434.19 330.08 407.28 332.42 409" style="fill: rgb(255, 255, 255); transform-origin: 316.065px 422.375px;" id="elc1iiecnzil4" class="animable"></polygon></g></g><path d="M309.47,423.88c.12.17,1.1-.34,2.38-.26s2.2.65,2.34.49-.74-1.14-2.31-1.21S309.33,423.74,309.47,423.88Z" style="fill: rgb(38, 50, 56); transform-origin: 311.831px 423.517px;" id="el5ur9zk3sif" class="animable"></path><path d="M309.88,419.94c.16.12.94-.83,2.27-1s2.37.43,2.48.26-.12-.35-.58-.63a3.12,3.12,0,0,0-3.82.63C309.88,419.56,309.8,419.89,309.88,419.94Z" style="fill: rgb(38, 50, 56); transform-origin: 312.254px 419.065px;" id="el3uvn30yflkl" class="animable"></path><path d="M310,414.86c.18.1.78-.84,1.95-1.2s2.2.06,2.29-.12-.16-.32-.61-.51a2.88,2.88,0,0,0-3.42,1.07C309.9,414.51,309.87,414.82,310,414.86Z" style="fill: rgb(38, 50, 56); transform-origin: 312.093px 413.852px;" id="elwr3aojymrin" class="animable"></path><path d="M305.65,410.77c.2.08.7-.85,1.75-1.48s2.09-.69,2.11-.9-1.22-.51-2.49.28S305.45,410.74,305.65,410.77Z" style="fill: rgb(38, 50, 56); transform-origin: 307.552px 409.465px;" id="elsore2cvlcbp" class="animable"></path><path d="M303.61,407.29c.08.06.65-.59,1.51-1.68l1.47-1.94a5.47,5.47,0,0,0,.82-1.32,1.38,1.38,0,0,0-.07-1,1,1,0,0,0-1-.56,3.08,3.08,0,0,0-1.58.75,5.8,5.8,0,0,0-1,1.12,5.61,5.61,0,0,0-1,2.36,3.08,3.08,0,0,0,.29,2.28,19.18,19.18,0,0,1,.21-2.18,5.86,5.86,0,0,1,1-2.07,4.92,4.92,0,0,1,.94-.94,2.7,2.7,0,0,1,1.17-.59.32.32,0,0,1,.31.16.65.65,0,0,1,0,.48,5.37,5.37,0,0,1-.68,1.13l-1.34,2A6.77,6.77,0,0,0,303.61,407.29Z" style="fill: rgb(38, 50, 56); transform-origin: 305.066px 404.043px;" id="el9jazweeqn8w" class="animable"></path><path d="M303,407.76c.07,0,0-.87-.82-1.9a4.16,4.16,0,0,0-4.89-1.06.76.76,0,0,0-.28.58,1,1,0,0,0,.18.53,2.65,2.65,0,0,0,.58.55,7.45,7.45,0,0,0,1.15.71,7.2,7.2,0,0,0,2.16.68,3.39,3.39,0,0,0,2.06-.11c0-.12-.79-.09-2-.39a8.08,8.08,0,0,1-1.95-.78,7,7,0,0,1-1-.68,2.33,2.33,0,0,1-.42-.39c-.07-.15-.05-.1,0-.15a1.31,1.31,0,0,1,.49-.16,4.53,4.53,0,0,1,.62-.07,3.82,3.82,0,0,1,1.18.13,4,4,0,0,1,1.76,1C302.66,407,302.88,407.81,303,407.76Z" style="fill: rgb(38, 50, 56); transform-origin: 300.075px 406.189px;" id="el0yqraity851h" class="animable"></path><g id="el96icio83rdn"><g style="opacity: 0.6; transform-origin: 321.197px 408.11px;" class="animable"><path d="M319.2,408a2,2,0,1,0,2-1.89A2,2,0,0,0,319.2,408Z" style="fill: rgb(255, 255, 255); transform-origin: 321.197px 408.11px;" id="el9th3aahlmfc" class="animable"></path></g></g><path d="M206.07,221.56S180.19,305,172.49,325.61l38.82,3.89Z" style="fill: rgb(28, 56, 121); transform-origin: 191.9px 275.53px;" id="elcy2ljfzan5d" class="animable"></path><g id="ely044wkm7q3"><path d="M210.59,223.42S184.7,306.9,177,327.47l38.82,3.89Z" style="opacity: 0.3; transform-origin: 196.41px 277.39px;" class="animable"></path></g><path d="M205.12,228.75v27.8s-31.83,80.35-32.48,81.63l-19.19,72,27.45,10.67s15.21-53,17.17-63.62l2.35-5.48,38.77-58.35s20-27,17.62-52.48l-6.66-23.11S227.44,230.71,205.12,228.75Z" style="fill: rgb(38, 50, 56); transform-origin: 205.228px 319.33px;" id="el29jsjvb2zr9" class="animable"></path><path d="M217.26,240.5l32.14,107,49.14,62.78,26.26-16.88S287,343.27,283.86,335.83s-8.64-60.09-8.64-60.09-2.74-29-9.79-39.94a90.54,90.54,0,0,0-15.28-18L217.26,240.5Z" style="fill: rgb(38, 50, 56); transform-origin: 271.03px 314.04px;" id="el8qzf71x9fi" class="animable"></path><path d="M202.84,145.93l33-12,9.95,1.79,17.14,65.89,29,117.64s-79.37,22.45-100,5.41l10.32-66.48,3-40.45c-3.51-12.16-7.46-27.57-8.68-39.33S202.84,145.93,202.84,145.93Z" style="fill: rgb(28, 56, 121); transform-origin: 241.93px 232.488px;" id="el5dgnso4dodx" class="animable"></path><path d="M233.78,135s11.61-2,14.07,1.65,30.87,49.9,31.2,59.49-13.83,54.32-13.83,54.32l-26.81-9.32s13.21-42.9,12.55-45.94S217.92,163.77,233.78,135Z" style="fill: rgb(28, 56, 121); transform-origin: 254.234px 192.457px;" id="elt6rzipbd6s" class="animable"></path><path d="M270.16,253.22a13.15,13.15,0,0,1-1.75.33,18.37,18.37,0,0,1-2.07.25c-.82.07-1.74.18-2.77.18s-2.15.05-3.36,0-2.49-.18-3.84-.32a47.7,47.7,0,0,1-16.75-5.36c-1.18-.67-2.32-1.28-3.31-2s-1.93-1.31-2.75-1.93-1.53-1.22-2.15-1.74-1.14-1-1.54-1.41a11.55,11.55,0,0,1-1.23-1.29,11.16,11.16,0,0,1,1.36,1.14c.43.38.95.84,1.59,1.33s1.34,1.11,2.19,1.68,1.73,1.24,2.76,1.86,2.13,1.26,3.3,1.91a50.35,50.35,0,0,0,16.59,5.31c1.34.15,2.61.32,3.81.36s2.31.09,3.33.09,1.93-.06,2.74-.1a20.64,20.64,0,0,0,2.07-.16A10.62,10.62,0,0,1,270.16,253.22Z" style="fill: rgb(38, 50, 56); transform-origin: 249.4px 246.966px;" id="el23at8z9t57s" class="animable"></path><path d="M240.52,241.89l-2.11,5.45s8.72,5.46,15.36,5.64l2.12-5.75Z" style="fill: rgb(255, 190, 157); transform-origin: 247.15px 247.435px;" id="eluy678n5irfc" class="animable"></path><g id="eltkgw5ybbsm"><g style="opacity: 0.3; transform-origin: 245.084px 149.225px;" class="animable"><path d="M234.16,135.59a22.49,22.49,0,0,0-3.27,15.19,10.15,10.15,0,0,0,1.7,4.7,5,5,0,0,0,4.33,2.14c2.51-.26,4.48-2.91,7-2.64,2,.21,3.28,2.14,4.18,3.92s1.9,3.78,3.79,4.42A5,5,0,0,0,257,161.6a14.62,14.62,0,0,0,2.5-5.06S249.18,137.69,247,135.87,234.16,135.59,234.16,135.59Z" style="fill: rgb(255, 255, 255); transform-origin: 245.084px 149.225px;" id="elm2sp3be958" class="animable"></path></g></g><path d="M235.81,171.51a4.84,4.84,0,0,1,.29.4l.79,1.19,3,4.65,11.2,17.38,0,0v0a9.37,9.37,0,0,1-.25,2.44c-.15.8-.33,1.62-.52,2.44-.38,1.64-.8,3.34-1.26,5.08-.91,3.48-1.93,7.16-3,11-2.2,7.71-4.69,16.13-7.42,25.07l-.16-.31,26.82,9.31-.33.17c.51-1.67,1.07-3.47,1.63-5.27,2.22-7.24,4.31-14.34,6.22-21.22s3.68-13.54,5-20l.45-2.4c.15-.79.23-1.59.35-2.38a18.6,18.6,0,0,0,.19-2.34,5.5,5.5,0,0,0,0-1.15,7.19,7.19,0,0,0-.18-1.13,46.81,46.81,0,0,0-3-8.46c-2.37-5.33-4.89-10.15-7.24-14.52-4.71-8.73-8.8-15.65-11.63-20.42-2.76-4.57-4.11-6.79-4.46-7.38,0,0,.12.15.33.46l.92,1.39c.79,1.23,1.93,3.06,3.38,5.43,2.89,4.74,7,11.63,11.79,20.35,2.36,4.36,4.91,9.17,7.31,14.51a47.9,47.9,0,0,1,3.07,8.54,9.35,9.35,0,0,1,.19,1.18,5.35,5.35,0,0,1,0,1.2,19.25,19.25,0,0,1-.19,2.4c-.11.8-.2,1.6-.34,2.4l-.45,2.41c-1.28,6.45-3.06,13.12-4.95,20s-4,14-6.21,21.23l-1.64,5.28-.08.25-.25-.09-26.81-9.33-.23-.08.07-.23c2.74-8.92,5.26-17.34,7.48-25q1.66-5.78,3.07-11,.69-2.61,1.28-5.07c.19-.81.37-1.62.53-2.42a10,10,0,0,0,.26-2.3l0,.06-11.07-17.47-2.94-4.7c-.33-.52-.57-.93-.75-1.22S235.81,171.51,235.81,171.51Z" style="fill: rgb(38, 50, 56); transform-origin: 257.567px 197.175px;" id="el04kgqlumnwfi" class="animable"></path><path d="M245.34,135.22c0,.08-1,0-2.53,0a43.32,43.32,0,0,0-6,.46,44.78,44.78,0,0,0-5.93,1.23c-1.49.41-2.38.78-2.42.71a7.73,7.73,0,0,1,2.31-1.07,32,32,0,0,1,6-1.38,31.18,31.18,0,0,1,6.11-.32A8.25,8.25,0,0,1,245.34,135.22Z" style="fill: rgb(38, 50, 56); transform-origin: 236.9px 136.223px;" id="eltsp8uz3ba6i" class="animable"></path><path d="M191.9,324.71s0-.16,0-.47.07-.79.12-1.38c.1-1.21.3-3,.57-5.28.54-4.58,1.4-11.19,2.53-19.35,2.24-16.33,5.52-38.87,9.25-63.73.76-5,1.49-9.88,2.2-14.56V220c-1.34-10.74-3.12-20.78-4.63-29.85a90.9,90.9,0,0,1,2.67-40c.56-1.8,1-3.19,1.37-4.12l.39-1.05.14-.35a1.52,1.52,0,0,1-.1.37c-.08.26-.2.61-.34,1.07-.33.93-.75,2.32-1.28,4.13a93.21,93.21,0,0,0-3,15.75,91.29,91.29,0,0,0,.64,24.09c1.53,9,3.34,19.09,4.69,29.86V220c-.71,4.68-1.44,9.57-2.19,14.55-3.73,24.87-7.07,47.39-9.41,63.71-1.17,8.15-2.09,14.76-2.69,19.33-.3,2.28-.53,4.05-.67,5.26-.07.58-.12,1-.17,1.37S191.9,324.71,191.9,324.71Z" style="fill: rgb(38, 50, 56); transform-origin: 199.51px 234.67px;" id="el6s07g44dh73" class="animable"></path><path d="M222.59,212.82A23.49,23.49,0,0,1,212,217.9c0-.15,2.47-.93,5.38-2.34S222.5,212.69,222.59,212.82Z" style="fill: rgb(38, 50, 56); transform-origin: 217.295px 215.356px;" id="elfz9nllzg8am" class="animable"></path><path d="M228.05,225.19a14.06,14.06,0,0,1-2.35-.32c-1.43-.23-3.42-.52-5.63-.73s-4.22-.27-5.67-.3a12.7,12.7,0,0,1-2.37-.11,9.33,9.33,0,0,1,2.36-.26,43.65,43.65,0,0,1,5.73.16,42.93,42.93,0,0,1,5.65.88A9.22,9.22,0,0,1,228.05,225.19Z" style="fill: rgb(38, 50, 56); transform-origin: 220.04px 224.314px;" id="elt8e80z2gtj" class="animable"></path><path d="M251.83,287.44a1.74,1.74,0,0,1-.44.22,9.51,9.51,0,0,1-1.34.48,13.83,13.83,0,0,1-5.19.39,17,17,0,0,1-7.28-2.59,20.87,20.87,0,0,1-6.48-6.88,30.25,30.25,0,0,1-3.42-8.82,48.33,48.33,0,0,1-1-7.65c-.12-2.19-.13-4-.11-5.19,0-.62,0-1.09,0-1.42a1.91,1.91,0,0,1,0-.49,1.61,1.61,0,0,1,.06.49c0,.39,0,.85.06,1.41.05,1.23.11,3,.27,5.17a52,52,0,0,0,1.12,7.57,30.11,30.11,0,0,0,3.4,8.66,20.62,20.62,0,0,0,6.29,6.75,17.19,17.19,0,0,0,7.06,2.63,14.72,14.72,0,0,0,5.1-.23C251.19,287.67,251.81,287.39,251.83,287.44Z" style="fill: rgb(38, 50, 56); transform-origin: 239.192px 272.055px;" id="elogzqdufb16" class="animable"></path><path d="M268.77,181.44a34.8,34.8,0,0,1-3.09-5.12,35,35,0,0,1-2.64-5.38,34.76,34.76,0,0,1,3.1,5.13A34,34,0,0,1,268.77,181.44Z" style="fill: rgb(255, 255, 255); transform-origin: 265.905px 176.19px;" id="el34i8qxcmtuv" class="animable"></path><path d="M250.43,145.61a15.81,15.81,0,0,1-2.58-3.06,16,16,0,0,1-2.16-3.37,15.08,15.08,0,0,1,2.58,3.06A15,15,0,0,1,250.43,145.61Z" style="fill: rgb(255, 255, 255); transform-origin: 248.06px 142.395px;" id="elvv8alynfp5p" class="animable"></path><path d="M285.39,309.31c-.14,0-2.69-11.27-5.69-25.25s-5.33-25.33-5.18-25.36S277.2,270,280.21,284,285.53,309.28,285.39,309.31Z" style="fill: rgb(255, 255, 255); transform-origin: 279.955px 284.005px;" id="elv5apgqmani" class="animable"></path><g id="el2yxo56k81sr"><g style="opacity: 0.3; transform-origin: 247.295px 304.869px;" class="animable"><path d="M262.91,300a13.74,13.74,0,0,1-22.56,1.47,10.41,10.41,0,0,1-10.53,5.72c-4.24-.57-6.57-4.47-9.23-7.74a27.6,27.6,0,0,0,5.24,7.55,11.18,11.18,0,0,0,8.35,3.28c3.07-.27,6-2.58,6.44-5.63a13,13,0,0,0,22.14-1.41A6.77,6.77,0,0,0,274,299.93,9.2,9.2,0,0,1,262.91,300Z" style="fill: rgb(255, 255, 255); transform-origin: 247.295px 304.869px;" id="elyjm9vpvjass" class="animable"></path></g></g><path d="M205.19,169a78.25,78.25,0,0,1,.92-9.06,78.34,78.34,0,0,1,1.45-9,82.44,82.44,0,0,1-.93,9.07A79.84,79.84,0,0,1,205.19,169Z" style="fill: rgb(255, 255, 255); transform-origin: 206.375px 159.97px;" id="elqqnaehbk4nf" class="animable"></path><path d="M204.9,179.75a5.82,5.82,0,0,1-.44-2.37,5.55,5.55,0,0,1,.07-2.42,5.86,5.86,0,0,1,.45,2.37A5.64,5.64,0,0,1,204.9,179.75Z" style="fill: rgb(255, 255, 255); transform-origin: 204.717px 177.355px;" id="el6ogpde3rgnl" class="animable"></path><path d="M253.3,193a26.49,26.49,0,0,1-3.34-4.1,27.3,27.3,0,0,1-2.91-4.4,26.8,26.8,0,0,1,3.33,4.1A27.3,27.3,0,0,1,253.3,193Z" style="fill: rgb(255, 255, 255); transform-origin: 250.175px 188.75px;" id="el7qb1xulwit" class="animable"></path><path d="M252.91,198.57c-.15,0-.26-.08-.26-.18s.11-.19.26-.19.26.09.26.19S253.05,198.57,252.91,198.57Z" style="fill: rgb(255, 255, 255); transform-origin: 252.91px 198.385px;" id="elzp90v64e79k" class="animable"></path><path d="M252.37,207.74a93.88,93.88,0,0,1-2.78,9.35,94,94,0,0,1-3.26,9.18,89.34,89.34,0,0,1,2.77-9.34A91.29,91.29,0,0,1,252.37,207.74Z" style="fill: rgb(255, 255, 255); transform-origin: 249.35px 217.005px;" id="eljnrz88cigke" class="animable"></path><path d="M228.93,206.33a6.87,6.87,0,0,1-1.44,1.41,29.76,29.76,0,0,1-8.39,4.83,7,7,0,0,1-1.94.54c0-.15,2.83-1.18,6.07-3.06S228.83,206.21,228.93,206.33Z" style="fill: rgb(255, 255, 255); transform-origin: 223.045px 209.717px;" id="elmoi7h7f8gfn" class="animable"></path><path d="M233,223.26a30.21,30.21,0,0,0-5.57-1.88,29.68,29.68,0,0,0-5.88-.23,11.05,11.05,0,0,1,6-.28A11.2,11.2,0,0,1,233,223.26Z" style="fill: rgb(255, 255, 255); transform-origin: 227.275px 221.921px;" id="el0sxaptktu0s" class="animable"></path><path d="M244.76,253.26a9.08,9.08,0,0,1-2.18-.85,54.61,54.61,0,0,1-5-2.67,53,53,0,0,1-4.68-3.16,8.76,8.76,0,0,1-1.77-1.53,12.23,12.23,0,0,1,2,1.23c1.19.8,2.85,1.88,4.73,3s3.61,2.09,4.87,2.78A12,12,0,0,1,244.76,253.26Z" style="fill: rgb(255, 255, 255); transform-origin: 237.945px 249.155px;" id="ellnrx2hp7pwi" class="animable"></path><path d="M172.24,344.51a9,9,0,0,1-.2,1.68c-.16,1.09-.42,2.64-.77,4.57-.69,3.85-1.75,9.14-3.08,15s-2.71,11-3.76,14.8c-.53,1.88-1,3.4-1.3,4.44a10,10,0,0,1-.56,1.61,12.17,12.17,0,0,1,.36-1.66c.29-1.14.68-2.66,1.14-4.48,1-3.79,2.27-9,3.61-14.83s2.44-11.09,3.23-14.91c.38-1.85.69-3.38.93-4.53A12.26,12.26,0,0,1,172.24,344.51Z" style="fill: rgb(255, 255, 255); transform-origin: 167.405px 365.56px;" id="elyt27ilqt8ip" class="animable"></path><path d="M177.43,337.06c.11.08-.32.86-1,1.72s-1.27,1.51-1.39,1.42.32-.86,1-1.73S177.31,337,177.43,337.06Z" style="fill: rgb(255, 255, 255); transform-origin: 176.234px 338.632px;" id="elwoqhdeshqhs" class="animable"></path><path d="M250.49,344.91a9.66,9.66,0,0,1-.45-3.12,9.88,9.88,0,0,1,.06-3.16,9.66,9.66,0,0,1,.45,3.12A9.88,9.88,0,0,1,250.49,344.91Z" style="fill: rgb(255, 255, 255); transform-origin: 250.295px 341.77px;" id="eli8r94gtqysn" class="animable"></path><path d="M277.15,375.21a8.44,8.44,0,0,1-1.07-.95c-.66-.63-1.6-1.57-2.75-2.74-2.29-2.35-5.37-5.68-8.61-9.51s-6-7.41-8-10.05c-1-1.32-1.74-2.41-2.26-3.17a9.54,9.54,0,0,1-.76-1.21,7.61,7.61,0,0,1,.93,1.09l2.38,3.07c2,2.58,4.84,6.12,8.07,9.94s6.26,7.17,8.48,9.58l2.63,2.86A6.75,6.75,0,0,1,277.15,375.21Z" style="fill: rgb(255, 255, 255); transform-origin: 265.425px 361.395px;" id="el98n39gvssak" class="animable"></path><path d="M249.28,134.75a11.57,11.57,0,0,1,.5-3.43,11.59,11.59,0,0,1,1-3.31,11.57,11.57,0,0,1-.5,3.43A11.59,11.59,0,0,1,249.28,134.75Z" style="fill: rgb(38, 50, 56); transform-origin: 250.03px 131.38px;" id="elhwrpmlkqwnj" class="animable"></path><path d="M251.35,137.19a15.11,15.11,0,0,1,2.28-4.56,15.55,15.55,0,0,1,3.28-3.89c.12.1-1.32,1.85-2.84,4.18S251.48,137.25,251.35,137.19Z" style="fill: rgb(38, 50, 56); transform-origin: 254.134px 132.966px;" id="eljx1zha0rlu" class="animable"></path><path d="M253.38,138.3a4.59,4.59,0,0,1,2.37-.81,4.64,4.64,0,0,1,2.5.06,35.21,35.21,0,0,1-4.87.75Z" style="fill: rgb(38, 50, 56); transform-origin: 255.815px 137.824px;" id="elsrqr82cyry" class="animable"></path><path d="M193.88,253a18.76,18.76,0,0,1-6.17-1.12,18.76,18.76,0,0,1,6.17,1.12Z" style="fill: rgb(38, 50, 56); transform-origin: 190.795px 252.44px;" id="el7pzx1tunvt2" class="animable"></path><path d="M194.22,251.53a13.77,13.77,0,0,1-2.8-2.43,13.54,13.54,0,0,1-2.44-2.81,26.37,26.37,0,0,1,5.24,5.24Z" style="fill: rgb(38, 50, 56); transform-origin: 191.6px 248.91px;" id="el0b205k3e043" class="animable"></path><path d="M196.1,247.76a13.65,13.65,0,0,1-.57-5.24,6.84,6.84,0,0,1,.54,2.59A7,7,0,0,1,196.1,247.76Z" style="fill: rgb(38, 50, 56); transform-origin: 195.846px 245.14px;" id="elf8id8pvzp6n" class="animable"></path><path d="M317.62,370.47a22.82,22.82,0,0,1,.31-6.8,22,22,0,0,1-.31,6.8Z" style="fill: rgb(38, 50, 56); transform-origin: 317.779px 367.07px;" id="eljafx2eb8lle" class="animable"></path><path d="M318.94,373.36A14.56,14.56,0,0,1,320.8,370a14.16,14.16,0,0,1,2.29-3.11,15,15,0,0,1-1.85,3.39A14.37,14.37,0,0,1,318.94,373.36Z" style="fill: rgb(38, 50, 56); transform-origin: 321.015px 370.125px;" id="elgb2cnbbseld" class="animable"></path><path d="M321.24,376a15,15,0,0,1,3.83-1.06,15.33,15.33,0,0,1,3.93-.56,15.28,15.28,0,0,1-3.83,1.07A15.56,15.56,0,0,1,321.24,376Z" style="fill: rgb(38, 50, 56); transform-origin: 325.12px 375.19px;" id="elbbkpwbkpmz" class="animable"></path></g><g id="freepik--Plant--inject-75" class="animable" style="transform-origin: 426.189px 412.589px;"><path d="M423.9,387.28a9.52,9.52,0,0,1,5.37,5.13,16.77,16.77,0,0,1,1.29,7.46c-.13,4.92-2.48,10.08-5.14,14.24-4.41-3.24-5.89-9.41-6.44-12.59-.88-5,.59-14.63,4.92-14.24" style="fill: rgb(69, 90, 100); transform-origin: 424.661px 400.689px;" id="elvnp1vlgjfj" class="animable"></path><path d="M430.89,421.75a8.07,8.07,0,0,1,1.95-7.89,10.69,10.69,0,0,1,7.68-3.14,4.53,4.53,0,0,1,3.6,1.26,3.46,3.46,0,0,1,.36,3.49,7.11,7.11,0,0,1-2.37,2.77c-3.37,2.54-7.1,4.37-11.22,3.51" style="fill: rgb(69, 90, 100); transform-origin: 437.678px 416.332px;" id="elp94zprc7q0n" class="animable"></path><path d="M426.9,437.15a5.1,5.1,0,0,1,.06-1c.07-.71.16-1.64.26-2.75a28.43,28.43,0,0,1,2.06-8.89,17.37,17.37,0,0,1,5.65-7.13,11.68,11.68,0,0,1,2.43-1.34c.3-.13.55-.19.72-.25s.25-.07.25,0a18.24,18.24,0,0,0-3.26,1.84,18,18,0,0,0-5.46,7.07,30.17,30.17,0,0,0-2.13,8.78c-.16,1.16-.28,2.09-.38,2.74A6.42,6.42,0,0,1,426.9,437.15Z" style="fill: rgb(38, 50, 56); transform-origin: 432.613px 426.446px;" id="el1oerz1ocfywh" class="animable"></path><path d="M423.42,394.7a1.24,1.24,0,0,1,.09.43c.05.32.11.74.18,1.25.16,1.09.35,2.66.58,4.61.47,3.9,1,9.29,1.51,15.26s.8,11.39,1,15.31c.09,2,.15,3.54.17,4.64q0,.78,0,1.26a2.28,2.28,0,0,1,0,.45,2.59,2.59,0,0,1-.06-.44c0-.33-.05-.75-.08-1.26-.07-1.14-.17-2.72-.29-4.64-.24-3.92-.59-9.32-1.07-15.29s-1-11.36-1.41-15.26c-.19-1.92-.35-3.49-.46-4.62l-.12-1.26A2.91,2.91,0,0,1,423.42,394.7Z" style="fill: rgb(38, 50, 56); transform-origin: 425.191px 416.305px;" id="elpcgns5y67w" class="animable"></path><path d="M424,425.33a18.89,18.89,0,0,0-11.48-12.94c-1.43-.54-3.25-.82-4.3.3s-.63,2.93.05,4.31A16.18,16.18,0,0,0,424,425.74" style="fill: rgb(69, 90, 100); transform-origin: 415.792px 418.856px;" id="elyzr32ke9a7p" class="animable"></path><path d="M413.61,417a4,4,0,0,1,.91.3,9.56,9.56,0,0,1,1,.44c.39.2.85.39,1.32.68s1,.58,1.53,1A17.18,17.18,0,0,1,420,420.6a19.45,19.45,0,0,1,5.5,7.63,16.74,16.74,0,0,1,.65,2,13.24,13.24,0,0,1,.4,1.76c.12.53.14,1,.2,1.47a9.58,9.58,0,0,1,.06,1.12,3.93,3.93,0,0,1,0,.95c-.08,0-.05-1.36-.48-3.5a15.41,15.41,0,0,0-.43-1.72,20.12,20.12,0,0,0-.67-1.92,20,20,0,0,0-5.41-7.51,18.94,18.94,0,0,0-1.61-1.27,17.12,17.12,0,0,0-1.48-1C414.87,417.49,413.58,417,413.61,417Z" style="fill: rgb(38, 50, 56); transform-origin: 420.224px 426.265px;" id="elmzvgwwu0u7p" class="animable"></path></g><g id="freepik--Floor--inject-75" class="animable" style="transform-origin: 245.285px 438.07px;"><path d="M477.32,438.07c0,.15-103.9.26-232,.26s-232.07-.11-232.07-.26,103.88-.26,232.07-.26S477.32,437.93,477.32,438.07Z" style="fill: rgb(38, 50, 56); transform-origin: 245.285px 438.07px;" id="elypmrcwku6lk" class="animable"></path></g><defs>     <filter id="active" height="200%">         <feMorphology in="SourceAlpha" result="DILATED" operator="dilate" radius="2"></feMorphology>                <feFlood flood-color="#32DFEC" flood-opacity="1" result="PINK"></feFlood>        <feComposite in="PINK" in2="DILATED" operator="in" result="OUTLINE"></feComposite>        <feMerge>            <feMergeNode in="OUTLINE"></feMergeNode>            <feMergeNode in="SourceGraphic"></feMergeNode>        </feMerge>    </filter>    <filter id="hover" height="200%">        <feMorphology in="SourceAlpha" result="DILATED" operator="dilate" radius="2"></feMorphology>                <feFlood flood-color="#ff0000" flood-opacity="0.5" result="PINK"></feFlood>        <feComposite in="PINK" in2="DILATED" operator="in" result="OUTLINE"></feComposite>        <feMerge>            <feMergeNode in="OUTLINE"></feMergeNode>            <feMergeNode in="SourceGraphic"></feMergeNode>        </feMerge>            <feColorMatrix type="matrix" values="0   0   0   0   0                0   1   0   0   0                0   0   0   0   0                0   0   0   1   0 "></feColorMatrix>    </filter></defs></svg>